<?xml version="1.0" encoding="UTF-8"?>
<svg width="35px" height="29px" viewBox="0 0 35 29" version="1.1" xmlns="http://www.w3.org/2000/svg" xmlns:xlink="http://www.w3.org/1999/xlink">
    <!-- Generator: Sketch 50.2 (55047) - http://www.bohemiancoding.com/sketch -->
    <title>backgrounds/dark blue</title>
    <desc>Created with Sketch.</desc>
    <defs>
        <path d="M4.1503125,22.7953125 C4.04792671,22.8015749 3.9452652,22.7888614 3.8475,22.7578125 C3.50895886,22.6200431 3.28688608,22.2917455 3.285,21.92625 L3.285,18.9375 L3.1678125,18.9375 C1.93763117,18.935439 0.940595671,17.9392417 0.9375,16.7090625 L0.9375,2.2303125 C0.932193757,1.63718607 1.16546811,1.06680911 1.58488861,0.647388614 C2.00430911,0.227968112 2.57468607,-0.00530624274 3.1678125,7.84108564e-16 L21.3890625,7.84108564e-16 C22.619974,0.00206442608 23.6173106,0.999401046 23.619375,2.2303125 L23.619375,4.125 L22.3340625,4.125 L22.3340625,2.2303125 C22.3274997,1.73185779 21.9250172,1.32937528 21.4265625,1.3228125 L3.1678125,1.3228125 C2.66935779,1.32937528 2.26687528,1.73185779 2.2603125,2.2303125 L2.2603125,16.7465625 C2.26687528,17.2450172 2.66935779,17.6474997 3.1678125,17.6540625 L4.6040625,17.6540625 L4.6040625,20.754375 L7.3228125,17.6540625 L9.8971875,17.6540625 L9.8971875,18.9375 L7.8928125,18.9375 L4.7925,22.490625 C4.62710042,22.6730447 4.39622304,22.7825851 4.1503125,22.7953125 Z M17.0353125,19.884375 L23.5753125,19.884375 L23.5753125,20.866875 L17.0353125,20.866875 L17.0353125,19.884375 Z M17.0353125,16.633125 L30.1153125,16.633125 L30.1153125,17.615625 L17.0353125,17.615625 L17.0353125,16.633125 Z M17.0353125,13.381875 L30.1153125,13.381875 L30.1153125,14.364375 L17.0353125,14.364375 L17.0353125,13.381875 Z M17.0353125,10.093125 L30.1153125,10.093125 L30.1153125,11.075625 L17.0353125,11.075625 L17.0353125,10.093125 Z M31.7465625,28.693125 C31.500928,28.6808849 31.2700916,28.5720379 31.104375,28.3903125 L28.0040625,24.8353125 L14.5040625,24.8353125 C13.2757118,24.8306772 12.2815216,23.8352305 12.2784375,22.606875 L12.2784375,8.128125 C12.2805019,6.89721355 13.2778385,5.89987693 14.50875,5.8978125 L32.73,5.8978125 C33.9609115,5.89987693 34.9582481,6.89721355 34.9603125,8.128125 L34.9603125,22.644375 C34.9582481,23.8752865 33.9609115,24.8726231 32.73,24.8746875 L32.5790625,24.8746875 L32.5790625,27.8615625 C32.5714339,28.0895001 32.4768351,28.3058695 32.3146875,28.46625 C32.1689883,28.623349 31.9603977,28.7066475 31.7465625,28.693125 Z M14.50875,7.183125 C14.0102953,7.18968778 13.6078128,7.59217029 13.60125,8.090625 L13.60125,22.606875 C13.6078128,23.1053297 14.0102953,23.5078122 14.50875,23.514375 L28.6096875,23.514375 L31.3284375,26.6146875 L31.3284375,23.514375 L32.7646875,23.514375 C33.2631422,23.5078122 33.6656247,23.1053297 33.6721875,22.606875 L33.6721875,8.128125 C33.6656247,7.62967029 33.2631422,7.22718778 32.7646875,7.220625 L14.50875,7.220625 L14.50875,7.183125 Z" id="path-1"></path>
    </defs>
    <g id="Symbols" stroke="none" stroke-width="1" fill="none" fill-rule="evenodd">
        <g id="icons/support" transform="translate(-2.000000, -5.000000)">
            <g id="backgrounds/dark-blue" transform="translate(2.000000, 5.000000)">
                <mask id="mask-2" fill="white">
                    <use xlink:href="#path-1"></use>
                </mask>
                <use id="Mask" fill="#022F5B" fill-rule="nonzero" xlink:href="#path-1"></use>
                <g mask="url(#mask-2)" fill="#152C5A" id="Rectangle-3">
                    <g transform="translate(-2.000000, -5.000000)">
                        <rect x="0" y="0" width="40" height="40"></rect>
                    </g>
                </g>
            </g>
        </g>
    </g>
</svg>