<?xml version="1.0" encoding="UTF-8"?>
<svg width="31px" height="31px" viewBox="0 0 31 31" version="1.1" xmlns="http://www.w3.org/2000/svg" xmlns:xlink="http://www.w3.org/1999/xlink">
    <!-- Generator: Sketch 50.2 (55047) - http://www.bohemiancoding.com/sketch -->
    <title>icono_usuario</title>
    <desc>Created with Sketch.</desc>
    <defs></defs>
    <g id="Symbols" stroke="none" stroke-width="1" fill="none" fill-rule="evenodd">
        <g id="icons/user" fill="#022F5B" fill-rule="nonzero">
            <g id="icono_usuario">
                <path d="M15.375,30.689 C23.8480622,30.6718729 30.7034206,23.7900967 30.6879587,15.3170313 C30.6724969,6.8439659 23.7920682,-0.0127448675 15.3189999,0.00105168777 C6.84593164,0.014848243 -0.0121312659,6.89392916 -3.38813179e-21,15.367 C0.0165536998,23.8429439 6.89904942,30.7017146 15.375,30.689 Z M15.375,29.325 C7.65444257,29.308423 1.40876717,23.0369238 1.42404624,15.3163637 C1.43932532,7.59580362 7.70977444,1.34907399 15.430337,1.36305515 C23.1508996,1.37703631 29.3986832,7.64643519 29.386,15.367 C29.3628427,23.0868746 23.0949069,29.3311004 15.375,29.325 Z M25.292,25.188 L25.292,24.6 C25.2995147,23.3432469 24.803388,22.1358341 23.9144317,21.2474415 C23.0254754,20.3590488 21.8177481,19.8636882 20.561,19.872 L10.189,19.872 C8.93242469,19.8639567 7.72495599,20.3594359 6.83621699,21.2477991 C5.947478,22.1361624 5.45148812,23.3434214 5.459,24.6 L5.459,25.191 C8.07967133,27.8385662 11.650245,29.3282353 15.3755,29.3282353 C19.100755,29.3282353 22.6713287,27.8385662 25.292,25.191 L25.292,25.188 Z M21.971,12.094 C22.0334155,10.3217433 21.3594138,8.60271152 20.1090668,7.34516556 C18.8587198,6.08761959 17.1435858,5.40376007 15.371,5.456 C13.5968306,5.41107615 11.8819006,6.09589843 10.6266877,7.35054423 C9.37147488,8.60519004 8.6858778,10.3198104 8.73,12.094 C8.81556227,15.7251951 11.7397667,18.6480785 15.371,18.732 C18.9951326,18.6472853 21.9070928,15.7185593 21.971,12.094 Z" id="Path_20846"></path>
            </g>
        </g>
    </g>
</svg>