<?xml version="1.0" encoding="UTF-8"?>
<svg width="30px" height="30px" viewBox="0 0 30 30" version="1.1" xmlns="http://www.w3.org/2000/svg" xmlns:xlink="http://www.w3.org/1999/xlink">
    <!-- Generator: Sketch 50.2 (55047) - http://www.bohemiancoding.com/sketch -->
    <title>Mask</title>
    <desc>Created with Sketch.</desc>
    <defs>
        <path d="M19.6574194,5 C11.5623502,5 5,11.5623502 5,19.6574194 C5,27.7524885 11.5623502,34.3148387 19.6574194,34.3148387 C27.7524885,34.3148387 34.3148387,27.7524885 34.3148387,19.6574194 C34.3171511,15.7693216 32.7736343,12.0398059 30.0243336,9.29050514 C27.2750328,6.54120436 23.5455171,4.99768757 19.6574194,5 Z M19.6574194,6.62870968 C26.852977,6.62870968 32.686129,12.4618617 32.686129,19.6574194 C32.686129,26.852977 26.852977,32.686129 19.6574194,32.686129 C12.4618617,32.686129 6.62870968,26.852977 6.62870968,19.6574194 C6.62510966,16.2008883 7.99661725,12.884893 10.4407551,10.4407551 C12.884893,7.99661725 16.2008883,6.62510966 19.6574194,6.62870968 Z M19.6574194,11.5148387 C16.9741273,11.5512874 14.807739,13.7176757 14.7712903,16.4009677 C14.7712903,16.8507235 15.1358894,17.2153226 15.5856452,17.2153226 C16.0354009,17.2153226 16.4,16.8507235 16.4,16.4009677 L16.4,16.3603226 C16.4624088,14.5877935 17.8848903,13.165312 19.6574194,13.1029032 C21.4299484,13.165312 22.8524299,14.5877935 22.9148387,16.3603226 C22.9148387,17.7858065 22.1822581,18.5183871 21.1641935,19.4145161 C20.6118692,19.8794419 20.1071296,20.3981211 19.6574194,20.9629032 C19.1493419,21.6163424 18.864097,22.4154353 18.8435484,23.2429032 L18.8435484,23.6909677 C18.8435484,24.1407235 19.2081475,24.5053226 19.6579032,24.5053226 C20.107659,24.5053226 20.4722581,24.1407235 20.4722581,23.6909677 L20.4722581,23.2070968 C20.4653569,22.7277359 20.6379487,22.2631187 20.956129,21.9045161 C21.3484112,21.4303419 21.7845354,20.9942176 22.2587097,20.6019355 C23.6362452,19.6007336 24.4798046,18.0241404 24.5483871,16.3225806 C24.4922274,13.6585555 22.3220159,11.5252728 19.6574194,11.5148387 Z M19.6574194,25.7658065 C18.9829193,25.7658065 18.436129,26.3125968 18.436129,26.9870968 C18.436129,27.6615968 18.9829193,28.2083871 19.6574194,28.2083871 C20.3319194,28.2083871 20.8787097,27.6615968 20.8787097,26.9870968 C20.8848066,26.6612716 20.7581261,26.3469788 20.5277838,26.1164541 C20.2974416,25.8859293 19.9832493,25.7589999 19.6574194,25.7648387 L19.6574194,25.7658065 Z" id="path-1"></path>
    </defs>
    <g id="Symbols" stroke="none" stroke-width="1" fill="none" fill-rule="evenodd">
        <g id="icons/help" transform="translate(-5.000000, -5.000000)">
            <mask id="mask-2" fill="white">
                <use xlink:href="#path-1"></use>
            </mask>
            <use id="Mask" fill="#022F5B" fill-rule="nonzero" xlink:href="#path-1"></use>
        </g>
    </g>
</svg>