<?xml version="1.0" encoding="UTF-8"?>
<svg width="22px" height="30px" viewBox="0 0 22 30" version="1.1" xmlns="http://www.w3.org/2000/svg" xmlns:xlink="http://www.w3.org/1999/xlink">
    <!-- Generator: Sketch 50.2 (55047) - http://www.bohemiancoding.com/sketch -->
    <title>backgrounds/dark blue</title>
    <desc>Created with Sketch.</desc>
    <defs>
        <path d="M6.04777778,24.4677778 L6.04777778,23.6433333 L7.69777778,23.6433333 L7.69777778,24.4677778 C7.72935908,26.1152354 9.0739064,27.4342551 10.7216667,27.4342551 C12.3694269,27.4342551 13.7139743,26.1152354 13.7455556,24.4677778 L13.7455556,23.6433333 L15.3955556,23.6433333 L15.3955556,24.4677778 C15.3955556,27.0490953 13.3029842,29.1416667 10.7216667,29.1416667 C8.14034911,29.1416667 6.04777778,27.0490953 6.04777778,24.4677778 Z M21.4444444,10.7222222 L21.4444444,21.7222222 C21.4318493,22.7798025 20.5775803,23.6340715 19.52,23.6466667 L1.92444444,23.6466667 C0.865582923,23.6340362 0.0107979547,22.7777707 0,21.7188889 L0,10.7222222 C-5.08954748e-16,4.8005024 4.8005024,1.08780228e-15 10.7222222,0 C16.643942,-1.08780228e-15 21.4444444,4.8005024 21.4444444,10.7222222 Z M19.7944444,10.7222222 C19.7944444,5.71177224 15.7326722,1.65 10.7222222,1.65 C5.71177224,1.65 1.65,5.71177224 1.65,10.7222222 L1.65,21.7222222 C1.6457605,21.7962278 1.67331099,21.8685243 1.72572666,21.92094 C1.77814234,21.9733557 1.85043882,22.0009062 1.92444444,21.9966667 L19.5188889,21.9966667 C19.5928945,22.0009062 19.665191,21.9733557 19.7176067,21.92094 C19.7700223,21.8685243 19.7975728,21.7962278 19.7933333,21.7222222 L19.7944444,10.7222222 Z" id="path-1"></path>
    </defs>
    <g id="Symbols" stroke="none" stroke-width="1" fill="none" fill-rule="evenodd">
        <g id="icons/notifications" transform="translate(-9.000000, -5.000000)">
            <g id="backgrounds/dark-blue" transform="translate(9.000000, 5.000000)">
                <mask id="mask-2" fill="white">
                    <use xlink:href="#path-1"></use>
                </mask>
                <use id="Mask" fill="#022F5B" fill-rule="nonzero" xlink:href="#path-1"></use>
                <g mask="url(#mask-2)" fill="#152C5A" id="Rectangle-3">
                    <g transform="translate(-9.000000, -5.000000)">
                        <rect x="0" y="0" width="40" height="40"></rect>
                    </g>
                </g>
            </g>
        </g>
    </g>
</svg>