<?xml version="1.0" encoding="UTF-8"?>
<svg width="94px" height="60px" viewBox="0 0 94 60" version="1.1" xmlns="http://www.w3.org/2000/svg" xmlns:xlink="http://www.w3.org/1999/xlink">
    <!-- Generator: sketchtool 50.2 (55047) - http://www.bohemiancoding.com/sketch -->
    <title>B9FD0C37-6B20-4E31-889B-0240211E03EC</title>
    <desc>Created with sketchtool.</desc>
    <defs></defs>
    <g id="ADM-Issue" stroke="none" stroke-width="1" fill="none" fill-rule="evenodd">
        <g id="Document_type" transform="translate(-128.000000, -79.000000)">
            <g id="Group-9" transform="translate(-45.000000, -145.000000)">
                <g id="Instancias"></g>
            </g>
            <rect id="Rectangle" stroke="#AAABAC" fill="#FFFFFF" x="0.5" y="0.5" width="1240" height="940"></rect>
            <g id="content_document" transform="translate(36.000000, 58.000000)" fill="#FFFFFF" opacity="0.5" stroke="#033E78">
                <g id="Group-11">
                    <rect id="Rectangle" x="0.5" y="0.5" width="1178" height="846" rx="10"></rect>
                </g>
            </g>
            <g id="IATAlogo" transform="translate(128.000000, 79.000000)" fill="#002A51">
                <g id="Shape">
                    <path d="M13.3852535,59.8071429 L17.218894,40.8857143 L23.456682,40.8857143 L19.6447005,59.8071429 L13.3852535,59.8071429 Z M32.2069124,53.6142857 L36.1705069,53.6142857 L35.1525346,46.6714286 L32.2069124,53.6142857 Z M23.456682,59.8071429 L32.9,40.8857143 L39.0511521,40.8857143 L42.9281106,59.8071429 L37.1451613,59.8071429 L36.7986175,57.5571429 L30.6474654,57.5571429 L29.6728111,59.8071429 L23.456682,59.8071429 Z M48.6677419,59.8071429 L50.8119816,45.5785714 L45.3539171,45.5785714 L46.2852535,40.8 L63.0493088,40.8 L62.1179724,45.5785714 L56.9198157,45.5785714 L54.818894,59.8071429 L48.6677419,59.8071429 Z M69.6336406,53.6142857 L73.597235,53.6142857 L72.5792627,46.6714286 L69.6336406,53.6142857 Z M60.9050691,59.8071429 L70.3267281,40.8857143 L76.4778802,40.8857143 L80.3548387,59.8071429 L74.5285714,59.8071429 L74.2470046,57.5571429 L68.0958525,57.5571429 L67.1211982,59.8071429 L60.9050691,59.8071429 Z M93.978341,19.5 L64.6304147,19.5 C63.5474654,24.8142857 59.8221198,29.25 52.3930876,32.3142857 C53.237788,34.8428571 56.1184332,37.1785714 59.1073733,37.1785714 L75.0267281,37.1785714 C77.4525346,37.1785714 79.3801843,35.1642857 80.1599078,33.5357143 L63.9806452,33.5357143 C62.9843318,33.3642857 62.9410138,32.5714286 63.9373272,32.4857143 L79.835023,32.4857143 C81.8926267,32.4857143 83.7552995,30.75 84.8382488,28.8642857 L66.3198157,28.8642857 C65.3884793,28.7142857 65.3884793,27.9428571 66.3198157,27.7928571 L84.9898618,27.7928571 C86.8741935,27.7928571 88.5852535,25.6285714 89.3,24.1714286 L68.8105991,24.1714286 C67.7926267,24.0428571 67.7926267,23.1 68.8105991,23.0785714 L89.6682028,23.0785714 C91.2926267,23.0785714 92.8737327,21.3214286 93.978341,19.5 Z M0,19.5 L29.3479263,19.5 C30.4092166,24.8142857 34.1562212,29.25 41.5635945,32.3142857 C40.718894,34.8428571 37.8382488,37.1785714 34.8493088,37.1785714 L18.9516129,37.1785714 C16.5258065,37.1785714 14.5981567,35.1642857 13.8184332,33.5357143 L29.9976959,33.5357143 C30.9723502,33.3642857 31.0373272,32.5714286 30.0410138,32.4857143 L14.121659,32.4857143 C12.0640553,32.4857143 10.2013825,30.75 9.14009217,28.8642857 L27.6801843,28.8642857 C28.6115207,28.7142857 28.6115207,27.9428571 27.6801843,27.7928571 L9.01013825,27.7928571 C7.12580645,27.7928571 5.41474654,25.6285714 4.7,24.1714286 L25.1894009,24.1714286 C26.2073733,24.0428571 26.2073733,23.1 25.1894009,23.0785714 L4.33179724,23.0785714 C2.68571429,23.0785714 1.10460829,21.3214286 0,19.5 Z M37.4700461,3.55714286 C38.5529954,4.47857143 39.7658986,5.29285714 41.0654378,5.80714286 C42.1700461,3.66428571 43.7078341,1.82142857 45.483871,0.192857143 C42.5599078,0.578571429 39.8092166,1.67142857 37.4700461,3.55714286 Z M32.2718894,14.1214286 L38.8129032,14.1214286 C38.9645161,11.4642857 39.5276498,9.12857143 40.5889401,6.72857143 C39.137788,6.08571429 37.8815668,5.31428571 36.6686636,4.28571429 C33.9612903,6.96428571 32.4668203,10.4142857 32.2718894,14.1214286 Z M46.4801843,8.05714286 L46.4801843,14.1214286 L39.9391705,14.1214286 C39.9824885,11.7428571 40.5456221,9.3 41.5635945,7.09285714 C43.1230415,7.65 44.8124424,8.01428571 46.4801843,8.05714286 Z M56.5082949,3.55714286 C55.4470046,4.47857143 54.1907834,5.29285714 52.9129032,5.80714286 C51.743318,3.62142857 50.2921659,1.86428571 48.4728111,0.214285714 C51.4184332,0.578571429 54.1691244,1.67142857 56.5082949,3.55714286 Z M61.6847926,14.1214286 L55.1654378,14.1214286 C55.0788018,11.5071429 54.4723502,9.06428571 53.4327189,6.72857143 C54.818894,6.08571429 56.1400922,5.27142857 57.2880184,4.28571429 C60.1036866,7.07142857 61.5548387,10.5 61.6847926,14.1214286 Z M47.5414747,8.05714286 L47.5414747,14.1214286 L54.0391705,14.1214286 C54.0391705,11.6785714 53.4327189,9.34285714 52.4147465,7.09285714 C50.8552995,7.65 49.1875576,8.01428571 47.5414747,8.05714286 Z M37.4700461,25.7571429 C38.5529954,24.9214286 39.8092166,24 41.0654378,23.55 C42.235023,25.7142857 43.6861751,27.4928571 45.483871,29.1 C42.5599078,28.7142857 39.7658986,27.6214286 37.4700461,25.7571429 Z M32.2718894,15.1714286 L38.8129032,15.1714286 C38.9645161,17.85 39.5276498,20.2071429 40.5889401,22.6285714 C39.137788,23.2714286 37.8815668,24.0428571 36.6686636,25.05 C34.0046083,22.3928571 32.4668203,18.9428571 32.2718894,15.1714286 Z M46.4801843,21.2571429 L46.4801843,15.1714286 L39.9391705,15.1714286 C39.9824885,17.6142857 40.5456221,20.0357143 41.5635945,22.2 C43.1230415,21.6428571 44.8124424,21.3 46.4801843,21.2571429 Z M56.5082949,25.7571429 C55.4903226,24.8785714 54.1907834,24.0642857 52.9129032,23.55 C51.743318,25.7142857 50.2921659,27.4928571 48.4728111,29.1 C51.4184332,28.7142857 54.1691244,27.6214286 56.5082949,25.7571429 Z M61.6847926,15.1714286 L55.1654378,15.1714286 C55.0788018,17.85 54.4940092,20.2285714 53.4327189,22.6285714 C54.818894,23.2714286 56.0751152,24.0428571 57.2880184,25.05 C59.9737327,22.3928571 61.5548387,18.8571429 61.6847926,15.1714286 Z M47.5414747,21.2571429 L47.5414747,15.1714286 L54.0391705,15.1714286 C54.0391705,17.6142857 53.4327189,19.9928571 52.4147465,22.2 C50.8986175,21.6428571 49.1442396,21.3 47.5414747,21.2571429 Z M46.4801843,0.814285714 C44.7041475,2.22857143 43.1230415,4.15714286 42.0834101,6.17142857 C43.4912442,6.64285714 44.9857143,7.02857143 46.4801843,7.02857143 L46.4801843,0.814285714 Z M47.5414747,0.814285714 C49.2741935,2.22857143 50.8552995,4.09285714 51.8949309,6.17142857 C50.4870968,6.68571429 48.9926267,7.02857143 47.5414747,7.02857143 L47.5414747,0.814285714 Z M46.4801843,28.5 C44.7041475,27.1071429 43.1230415,25.1785714 42.0834101,23.1214286 C43.4912442,22.6285714 44.9857143,22.35 46.4801843,22.35 L46.4801843,28.5 Z M47.5414747,28.5428571 C49.2741935,27.1071429 50.8552995,25.1785714 51.8949309,23.1214286 C50.4870968,22.6714286 48.9926267,22.35 47.5414747,22.35 L47.5414747,28.5428571 Z" fill-rule="nonzero"></path>
                </g>
            </g>
        </g>
    </g>
</svg>