<?xml version="1.0" encoding="UTF-8"?>
<svg width="55px" height="35px" viewBox="0 0 55 35" version="1.1" xmlns="http://www.w3.org/2000/svg" xmlns:xlink="http://www.w3.org/1999/xlink">
    <!-- Generator: sketchtool 50.2 (55047) - http://www.bohemiancoding.com/sketch -->
    <title>6578BB18-13FA-4C60-AECF-7918F7880A56</title>
    <desc>Created with sketchtool.</desc>
    <defs>
        <rect id="path-1" x="20" y="245" width="1240" height="665"></rect>
        <filter x="-0.8%" y="-1.1%" width="101.7%" height="103.2%" filterUnits="objectBoundingBox" id="filter-2">
            <feOffset dx="0" dy="3" in="SourceAlpha" result="shadowOffsetOuter1"></feOffset>
            <feGaussianBlur stdDeviation="3" in="shadowOffsetOuter1" result="shadowBlurOuter1"></feGaussianBlur>
            <feColorMatrix values="0 0 0 0 0   0 0 0 0 0   0 0 0 0 0  0 0 0 0.15 0" type="matrix" in="shadowBlurOuter1"></feColorMatrix>
        </filter>
        <path d="M0,0 L343,0 L343,139 L0,139 L0,0 Z" id="path-3"></path>
        <mask id="mask-4" maskContentUnits="userSpaceOnUse" maskUnits="objectBoundingBox" x="0" y="0" width="343" height="139" fill="white">
            <use xlink:href="#path-3"></use>
        </mask>
    </defs>
    <g id="UPLOAD-FILES" stroke="none" stroke-width="1" fill="none" fill-rule="evenodd">
        <g id="QUERY_UPLOAD_FILES_1280-_-no_files" transform="translate(-614.000000, -326.000000)">
            <g id="Rectangle">
                <use fill="black" fill-opacity="1" filter="url(#filter-2)" xlink:href="#path-1"></use>
                <use fill="#FFFFFF" fill-rule="evenodd" xlink:href="#path-1"></use>
            </g>
            <g id="Group" transform="translate(40.000000, 268.000000)" fill="#F8F8F8">
                <g id="background">
                    <rect id="background-form" x="0" y="0" width="1200" height="300" rx="10"></rect>
                </g>
            </g>
            <g id="Upload" transform="translate(469.000000, 288.000000)">
                <g id="forms/drag-and-drop-file">
                    <use id="Rectangle-4" stroke="#D1D1D1" mask="url(#mask-4)" stroke-width="2" fill="#FFFFFF" stroke-dasharray="5" xlink:href="#path-3"></use>
                    <g id="group" stroke-width="1" transform="translate(35.273196, 38.000000)">
                        <text id="Drag-and-Drop-files" font-family="Roboto-Light, Roboto" font-size="16" font-weight="300">
                            <tspan x="0.687741624" y="64" fill="#152C5A">Drag and Drop files here or </tspan>
                            <tspan x="190.859617" y="64" fill="#00A3E0">Browse</tspan>
                            <tspan x="243.437742" y="64" fill="#152C5A"> File</tspan>
                        </text>
                        <g id="icono_dragandrop" transform="translate(110.386029, 0.486111)" fill="#00A3E0" fill-rule="nonzero">
                            <path d="M26.9980205,0 C22.4708559,0.0187670913 18.3234398,2.54800325 16.2143143,6.57627281 C15.8996977,6.51202018 15.5811125,6.46928241 15.2607486,6.44835327 C11.5146804,6.45764466 8.43755653,9.42643013 8.27327557,13.1898135 C3.02049555,14.320753 -0.527224755,19.2679239 0.0643210349,24.6369112 C0.655866824,30.0058984 5.19446696,34.05215 10.5660402,33.9994009 L43.4310024,33.9994009 C48.5964721,34.0544603 53.0279582,30.308406 53.8618592,25.1819176 C54.6957601,20.0554291 51.6821821,15.0847534 46.7684824,13.4819132 C46.8606735,13.0966641 46.9219706,12.7045963 46.9517833,12.3094854 C46.976477,9.70045861 45.7544962,7.2380203 43.6664662,5.68917614 C41.5784362,4.14033199 38.8780644,3.69327525 36.4064686,4.48725614 C34.0882001,1.6612536 30.6410791,0.0171870617 26.9980205,0 Z M26.9980205,2.34485574 C30.1995412,2.3353506 33.2098867,3.87611102 35.0863009,6.48461393 C35.4063415,6.93323661 35.9919856,7.10030494 36.4986199,6.8875101 C38.5773901,6.00642302 40.9749321,6.4084027 42.6569755,7.92003999 C44.3390189,9.43167728 45.0045779,11.782479 44.3665385,13.958338 C44.277727,14.2672245 44.3197742,14.5992846 44.4827293,14.875934 C44.6464382,15.1535594 44.9161352,15.3515927 45.2289545,15.4238728 C49.310597,16.3231048 52.0583123,20.1761599 51.5959459,24.3521519 C51.1335796,28.5281439 47.610379,31.6791031 43.4320041,31.6535379 L28.171948,31.6535379 L28.171948,16.4311132 L33.9123734,20.849877 C34.2395991,21.1449495 34.7027987,21.2326727 35.114347,21.0775134 C35.5263732,20.9229014 35.8164196,20.5477878 35.8638917,20.1081359 C35.9113638,19.668484 35.7081398,19.239512 35.3387154,18.9995763 L27.7091882,13.137437 C27.2900303,12.8040757 26.6979975,12.8040757 26.2788396,13.137437 L18.6493124,18.9995763 C18.279888,19.239512 18.076664,19.668484 18.124136,20.1081359 C18.1716081,20.5477878 18.4616545,20.9229014 18.8736808,21.0775134 C19.2852291,21.2326727 19.7484286,21.1449495 20.0756544,20.849877 L25.8160798,16.4351422 L25.8160798,31.6535379 L10.5650385,31.6535379 C6.22539408,31.6923061 2.61683078,28.3043763 2.3577927,23.9480968 C2.09875463,19.5918172 5.28012674,15.7956127 9.59344321,15.3140836 C10.2335238,15.2393852 10.6925031,14.6574979 10.6191273,14.0137362 C10.5920829,13.7760274 10.5640369,13.5967386 10.5640369,13.4829205 C10.5734276,12.0181207 11.2586077,10.6407253 12.4186204,9.75471113 C13.5786331,8.86869698 15.0819872,8.57449671 16.4877633,8.95839644 C17.0510302,9.11798706 17.6452803,8.83680292 17.8820526,8.29865395 C19.4782047,4.67221365 23.0542931,2.33660772 26.9980205,2.34485574 Z" id="Path_20715"></path>
                        </g>
                    </g>
                </g>
            </g>
        </g>
    </g>
</svg>