<?xml version="1.0" encoding="UTF-8"?>
<svg width="21px" height="19px" viewBox="0 0 21 19" version="1.1" xmlns="http://www.w3.org/2000/svg" xmlns:xlink="http://www.w3.org/1999/xlink">
    <!-- Generator: Sketch 50.2 (55047) - http://www.bohemiancoding.com/sketch -->
    <title>iconos/comments</title>
    <desc>Created with Sketch.</desc>
    <defs></defs>
    <g id="Refund-RA" stroke="none" stroke-width="1" fill="none" fill-rule="evenodd">
        <g id="RA_Form_Payment-1280" transform="translate(-1095.000000, -399.000000)" fill="#152C5A">
            <g id="Selection-comments" transform="translate(945.000000, 387.000000)">
                <g id="Group-7" transform="translate(15.000000, 0.000000)">
                    <g id="Pestañas">
                        <g id="iconos/comentarios" transform="translate(135.000000, 12.000000)">
                            <g id="speech-bubble">
                                <path d="M20.8783682,12.0588235 L20.8783682,2.44385027 C20.8783682,1.11229947 19.8048351,0.0267379679 18.4880383,0.0267379679 L2.39032989,0.0267379679 C1.07353312,0.0267379679 0,1.11229947 0,2.44385027 L0,12.0588235 C0,13.3903743 1.07353312,14.4759358 2.39032989,14.4759358 L3.07252581,14.4759358 L3.07252581,17.3743316 C3.07252581,17.9090909 3.50088139,18.342246 4.03500378,18.342246 C4.30999748,18.342246 4.57441451,18.2192513 4.75950642,18.0053476 L7.77914883,14.4705882 L18.4933266,14.4705882 C19.8048351,14.4759358 20.8783682,13.3903743 20.8783682,12.0588235 Z M7.47771342,13.1657754 C7.28733317,13.1657754 7.11281793,13.2459893 6.98589776,13.3903743 L4.36288089,16.4545455 L4.36288089,13.8181818 C4.36288089,13.4545455 4.07202216,13.1604278 3.71241501,13.1604278 L2.39032989,13.1604278 C1.78745908,13.1604278 1.29564341,12.6631016 1.29564341,12.0534759 L1.29564341,2.44385027 C1.29564341,1.8342246 1.78745908,1.3368984 2.39032989,1.3368984 L18.4880383,1.3368984 C19.0909091,1.3368984 19.5827248,1.8342246 19.5827248,2.44385027 L19.5827248,12.0588235 C19.5827248,12.6684492 19.0909091,13.1657754 18.4880383,13.1657754 L7.47771342,13.1657754 Z" id="Shape" fill-rule="nonzero"></path>
                                <ellipse id="Oval" fill-rule="nonzero" cx="10.4391841" cy="7.48128342" rx="1" ry="1"></ellipse>
                                <ellipse id="Oval" fill-rule="nonzero" cx="13.0251826" cy="7.48128342" rx="1" ry="1"></ellipse>
                                <ellipse id="Oval" fill-rule="nonzero" cx="7.8531856" cy="7.48128342" rx="1" ry="1"></ellipse>
                            </g>
                        </g>
                    </g>
                </g>
            </g>
        </g>
    </g>
</svg>