<?xml version="1.0" encoding="UTF-8"?>
<svg width="15px" height="20px" viewBox="0 0 15 20" version="1.1" xmlns="http://www.w3.org/2000/svg" xmlns:xlink="http://www.w3.org/1999/xlink">
    <!-- Generator: Sketch 50.2 (55047) - http://www.bohemiancoding.com/sketch -->
    <title>iconos/documents-OFF</title>
    <desc>Created with Sketch.</desc>
    <defs></defs>
    <g id="Page-1" stroke="none" stroke-width="1" fill="none" fill-rule="evenodd" opacity="0.5">
        <g id="ico_files_gey" fill="#667380" fill-rule="nonzero">
            <g id="iconos/documents-OFF" transform="translate(0.000000, 0.000000)">
                <path d="M14.9973828,4.04800781 C14.9960547,3.92785156 14.9495703,3.81011719 14.86125,3.72175781 L11.2766797,0.137148437 C11.2765234,0.136992188 11.2764062,0.136953125 11.27625,0.136835938 C11.1916016,0.052265625 11.0746484,0 10.9455469,0 L0.987421875,0 C0.443789062,0 0.0015625,0.4421875 0.0015625,0.985820312 L0.0015625,19.0141406 C0.0015625,19.5577344 0.44375,19.9999609 0.987382812,19.9999609 L14.0125391,19.9999609 C14.5561328,19.9999609 14.9983594,19.5577734 14.9983594,19.0141406 L14.9983594,4.05285156 C14.9984375,4.05113281 14.9975391,4.0496875 14.9973828,4.04800781 Z M11.4138281,1.59886719 L13.3995312,3.58457031 L11.463125,3.58457031 C11.4359766,3.58457031 11.4138281,3.56242188 11.4138281,3.53527344 L11.4138281,1.59886719 Z M14.0618359,19.0141797 C14.0618359,19.0413281 14.0397266,19.0634375 14.0125781,19.0634375 L0.987421875,19.0634375 C0.960273437,19.0634375 0.938164062,19.0413281 0.938164062,19.0141797 L0.938164062,0.985820313 C0.938164062,0.958671875 0.960273437,0.9365625 0.987421875,0.9365625 L10.4772656,0.9365625 L10.4772656,3.53527344 C10.4772656,4.07886719 10.9195312,4.52117188 11.4631641,4.52117188 L14.061875,4.52117188 L14.061875,19.0141797 L14.0618359,19.0141797 Z" id="Shape"></path>
                <path d="M11.6440625,6.40679688 L3.3559375,6.40679688 C3.09734375,6.40679688 2.88765625,6.61644531 2.88765625,6.87507813 C2.88765625,7.13367188 3.09734375,7.34335938 3.3559375,7.34335938 L11.6440234,7.34335938 C11.9026172,7.34335938 12.1123047,7.13367188 12.1123047,6.87507813 C12.1123438,6.61644531 11.9026172,6.40679688 11.6440625,6.40679688 Z" id="Shape"></path>
                <path d="M11.6440625,9.23253906 L3.3559375,9.23253906 C3.09734375,9.23253906 2.88765625,9.44222656 2.88765625,9.70082031 C2.88765625,9.95941406 3.09734375,10.1691016 3.3559375,10.1691016 L11.6440234,10.1691016 C11.9026172,10.1691016 12.1123047,9.95941406 12.1123047,9.70082031 C12.1123438,9.44222656 11.9026172,9.23253906 11.6440625,9.23253906 Z" id="Shape"></path>
                <path d="M11.6440625,12.0582422 L3.3559375,12.0582422 C3.09734375,12.0582422 2.88765625,12.2679297 2.88765625,12.5265234 C2.88765625,12.7851562 3.09734375,12.9948047 3.3559375,12.9948047 L11.6440234,12.9948047 C11.9026172,12.9948047 12.1123047,12.7851562 12.1123047,12.5265234 C12.1123438,12.2679688 11.9026172,12.0582422 11.6440625,12.0582422 Z" id="Shape"></path>
                <path d="M7.5,14.8840234 L3.3559375,14.8840234 C3.09734375,14.8840234 2.88765625,15.0937109 2.88765625,15.3523047 C2.88765625,15.6109375 3.09734375,15.8205859 3.3559375,15.8205859 L7.5,15.8205859 C7.75859375,15.8205859 7.96828125,15.6109375 7.96828125,15.3523047 C7.96828125,15.0936719 7.75859375,14.8840234 7.5,14.8840234 Z" id="Shape"></path>
            </g>
        </g>
    </g>
</svg>