<?xml version="1.0" encoding="UTF-8"?>
<svg width="23px" height="30px" viewBox="0 0 23 30" version="1.1" xmlns="http://www.w3.org/2000/svg" xmlns:xlink="http://www.w3.org/1999/xlink">
    <!-- Generator: Sketch 50.2 (55047) - http://www.bohemiancoding.com/sketch -->
    <title>backgrounds/dark blue</title>
    <desc>Created with Sketch.</desc>
    <defs>
        <path d="M22.1029412,0.882352941 L3.75,0.882352941 C2.98714091,0.874728542 2.25330536,1.17440582 1.71385559,1.71385559 C1.17440582,2.25330536 0.874728542,2.98714091 0.882352941,3.75 L0.882352941,28.9852941 C0.872976733,29.140088 0.93038457,29.291479 1.04004101,29.4011355 C1.14969745,29.5107919 1.30108844,29.5681997 1.45588235,29.5588235 L22.1029412,29.5588235 C22.2577351,29.5681997 22.4091261,29.5107919 22.5187825,29.4011355 C22.628439,29.291479 22.6858468,29.140088 22.6764706,28.9852941 L22.6764706,1.45588235 C22.6858468,1.30108844 22.628439,1.14969745 22.5187825,1.04004101 C22.4091261,0.93038457 22.2577351,0.872976733 22.1029412,0.882352941 Z M3.75,2.02941176 L21.5294118,2.02941176 L21.5294118,5.47058824 L3.75,5.47058824 C3.29112858,5.47905444 2.84855396,5.30049868 2.52402764,4.97597236 C2.19950132,4.65144604 2.02094556,4.20887142 2.02941176,3.75 C2.02094556,3.29112858 2.19950132,2.84855396 2.52402764,2.52402764 C2.84855396,2.19950132 3.29112858,2.02094556 3.75,2.02941176 Z M13.5,6.61764706 L16.9411765,6.61764706 L16.9411765,12.6970588 L15.6176471,11.3823529 C15.5130487,11.272402 15.367933,11.2101616 15.2161765,11.2101616 C15.0644199,11.2101616 14.9193043,11.272402 14.8147059,11.3823529 L13.5,12.6970588 L13.5,6.61764706 Z M21.5294118,28.4117647 L2.02941176,28.4117647 L2.02941176,6.04411765 C2.5284488,6.41129974 3.13046112,6.61197051 3.75,6.61764706 L12.3529412,6.61764706 L12.3529412,14.0735294 C12.3345795,14.304437 12.4768512,14.5178445 12.6970588,14.5897059 C12.9124321,14.6705471 13.1548079,14.6264788 13.3279412,14.475 L15.2205882,12.5823529 L17.1132353,14.4705882 C17.2153639,14.5840233 17.3621297,14.6469229 17.5147059,14.6426471 C17.5955451,14.6511522 17.6767914,14.6308406 17.7441176,14.5852941 C17.9539012,14.5001806 18.0903549,14.2955 18.0882353,14.0691176 L18.0882353,6.61764706 L21.5294118,6.61764706 L21.5294118,28.4117647 Z M10.6323529,20.3823529 L6.04411765,20.3823529 C5.83921531,20.3823529 5.64987774,20.491667 5.54742657,20.6691176 C5.44497539,20.8465683 5.44497539,21.0651964 5.54742657,21.2426471 C5.64987774,21.4200977 5.83921531,21.5294118 6.04411765,21.5294118 L10.6323529,21.5294118 C10.8372553,21.5294118 11.0265928,21.4200977 11.129044,21.2426471 C11.2314952,21.0651964 11.2314952,20.8465683 11.129044,20.6691176 C11.0265928,20.491667 10.8372553,20.3823529 10.6323529,20.3823529 Z M8.33823529,23.8235294 L6.04411765,23.8235294 C5.83921531,23.8235294 5.64987774,23.9328435 5.54742657,24.1102941 C5.44497539,24.2877447 5.44497539,24.5063729 5.54742657,24.6838235 C5.64987774,24.8612742 5.83921531,24.9705883 6.04411765,24.9705882 L8.33823529,24.9705882 C8.54313763,24.9705883 8.7324752,24.8612742 8.83492637,24.6838235 C8.93737755,24.5063729 8.93737755,24.2877447 8.83492637,24.1102941 C8.7324752,23.9328435 8.54313763,23.8235294 8.33823529,23.8235294 Z" id="path-1"></path>
    </defs>
    <g id="Symbols" stroke="none" stroke-width="1" fill="none" fill-rule="evenodd">
        <g id="icons/resources" transform="translate(-9.000000, -5.000000)">
            <g id="backgrounds/dark-blue" transform="translate(9.000000, 5.000000)">
                <mask id="mask-2" fill="white">
                    <use xlink:href="#path-1"></use>
                </mask>
                <use id="Mask" fill="#022F5B" fill-rule="nonzero" xlink:href="#path-1"></use>
                <g mask="url(#mask-2)" fill="#152C5A" id="Rectangle-3">
                    <g transform="translate(-9.000000, -5.000000)">
                        <rect x="0" y="0" width="40" height="40"></rect>
                    </g>
                </g>
            </g>
        </g>
    </g>
</svg>