<?xml version="1.0" encoding="UTF-8"?>
<svg width="29px" height="30px" viewBox="0 0 29 30" version="1.1" xmlns="http://www.w3.org/2000/svg" xmlns:xlink="http://www.w3.org/1999/xlink">
    <!-- Generator: Sketch 50.2 (55047) - http://www.bohemiancoding.com/sketch -->
    <title>backgrounds/dark blue</title>
    <desc>Created with Sketch.</desc>
    <defs>
        <path d="M8.22085714,2.39057143 L10.8642857,21.042 C10.8971527,22.622344 12.1807972,23.8900379 13.7614286,23.9031429 L27.8862857,23.9031429 L27.8862857,22.4571429 L13.7622857,22.4571429 C12.9642087,22.4524619 12.3183952,21.8066484 12.3137143,21.0085714 L12.3137143,20.8997143 L11.9142857,18.108 L25.3508571,18.108 C26.9489511,18.1032928 28.2432928,16.8089511 28.248,15.2108571 L28.248,9.054 C28.2432928,7.45590604 26.9489511,6.16156437 25.3508571,6.15685714 L10.2488571,6.15685714 L9.66942857,2.10085714 C9.67450912,2.06099431 9.66127403,2.02097392 9.63342857,1.992 C9.24683365,0.800109114 8.13415219,-0.00520751619 6.88114286,-3.74909996e-14 L0,-2.51073022e-05 L0,1.44857143 L6.88114286,1.44857143 C7.48676139,1.43218795 8.03137503,1.81512486 8.22085714,2.39057143 Z M25.3508571,7.60542857 C26.1489341,7.6101095 26.7947476,8.25592303 26.7994286,9.054 L26.7994286,15.2108571 C26.7947476,16.0089341 26.1489341,16.6547476 25.3508571,16.6594286 L24.6265714,16.6594286 L24.6265714,8.688 L23.178,8.688 L23.178,16.6594286 L21.3677143,16.6594286 L21.3677143,8.688 L19.9191429,8.688 L19.9191429,16.6594286 L18.108,16.6594286 L18.108,8.688 L16.6594286,8.688 L16.6594286,16.6594286 L14.8482857,16.6594286 L14.8482857,8.688 L13.3997143,8.688 L13.3997143,16.6594286 L11.6974286,16.6594286 L10.4305714,7.60542857 L25.3508571,7.60542857 Z M22.8162857,27.4157143 C22.8162857,28.3385816 23.3722076,29.1705774 24.2248257,29.5237434 C25.0774439,29.8769094 26.0588499,29.6816956 26.7114156,29.0291299 C27.3639814,28.3765642 27.5591951,27.3951582 27.2060291,26.54254 C26.8528631,25.6899218 26.0208673,25.134 25.098,25.134 C24.4920829,25.1314806 23.9102549,25.3710656 23.4818031,25.7995174 C23.0533514,26.2279692 22.8137663,26.8097972 22.8162857,27.4157143 Z M25.9671429,27.4157143 C25.970892,27.6378056 25.8843192,27.8519041 25.7272545,28.0089688 C25.5701898,28.1660335 25.3560914,28.2526063 25.134,28.2488571 C24.9081835,28.2539112 24.6896357,28.1689087 24.5265782,28.012605 C24.3635206,27.8563013 24.2693545,27.6415425 24.2648571,27.4157143 C24.261108,27.1936229 24.3476808,26.9795244 24.5047455,26.8224598 C24.6618102,26.6653951 24.8759086,26.5788222 25.098,26.5825714 C25.3238165,26.5775174 25.5423643,26.6625199 25.7054218,26.8188236 C25.8684794,26.9751273 25.9626455,27.1898861 25.9671429,27.4157143 Z M12.3137143,27.4157143 C12.3137143,28.3385816 12.8696361,29.1705774 13.7222543,29.5237434 C14.5748725,29.8769094 15.5562785,29.6816956 16.2088442,29.0291299 C16.8614099,28.3765642 17.0566237,27.3951582 16.7034577,26.54254 C16.3502917,25.6899218 15.5182959,25.134 14.5954286,25.134 C13.9895115,25.1314806 13.4076835,25.3710656 12.9792317,25.7995174 C12.5507799,26.2279692 12.3111948,26.8097972 12.3137143,27.4157143 Z M15.4645714,27.4157143 C15.4683206,27.6378056 15.3817478,27.8519041 15.2246831,28.0089688 C15.0676184,28.1660335 14.8535199,28.2526063 14.6314286,28.2488571 C14.4056121,28.2539112 14.1870643,28.1689087 14.0240067,28.012605 C13.8609492,27.8563013 13.7667831,27.6415425 13.7622857,27.4157143 C13.7585365,27.1936229 13.8451094,26.9795244 14.0021741,26.8224598 C14.1592387,26.6653951 14.3733372,26.5788222 14.5954286,26.5825714 C14.821245,26.5775174 15.0397928,26.6625199 15.2028504,26.8188236 C15.365908,26.9751273 15.4600741,27.1898861 15.4645714,27.4157143 Z" id="path-1"></path>
    </defs>
    <g id="Symbols" stroke="none" stroke-width="1" fill="none" fill-rule="evenodd">
        <g id="icons/shop" transform="translate(-3.000000, -5.000000)">
            <g id="backgrounds/dark-blue" transform="translate(3.000000, 5.000000)">
                <mask id="mask-2" fill="white">
                    <use xlink:href="#path-1"></use>
                </mask>
                <use id="Mask" fill="#022F5B" fill-rule="nonzero" xlink:href="#path-1"></use>
                <g mask="url(#mask-2)" fill="#152C5A" id="Rectangle-3">
                    <g transform="translate(-3.000000, -5.000000)">
                        <rect x="0" y="0" width="40" height="40"></rect>
                    </g>
                </g>
            </g>
        </g>
    </g>
</svg>