<?xml version="1.0" encoding="UTF-8"?>
<svg width="25px" height="25px" viewBox="0 0 25 25" version="1.1" xmlns="http://www.w3.org/2000/svg" xmlns:xlink="http://www.w3.org/1999/xlink">
    <!-- Generator: Sketch 51.1 (57501) - http://www.bohemiancoding.com/sketch -->
    <title>icon user</title>
    <desc>Created with Sketch.</desc>
    <defs></defs>
    <g id="adm-acm-query" stroke="none" stroke-width="1" fill="none" fill-rule="evenodd">
        <g id="Artboard" transform="translate(-73.000000, -55.000000)" fill="#022F5B">
            <g id="icons/user" transform="translate(73.000000, 55.000000)">
                <g id="icono_usuario">
                    <path d="M12.3991935,24.7491935 C19.2323082,24.7353813 24.760823,19.1855619 24.7483538,12.3524446 C24.7358846,5.51932733 19.1871518,-0.010278119 12.3540322,0.000848135296 C5.52091261,0.0119743896 -0.00978327895,5.55962029 -6.87624735e-16,12.3927419 C0.0133497579,19.2281806 5.56374954,24.7594473 12.3991935,24.7491935 Z M12.3991935,23.6491935 C6.17293756,23.635825 1.13610256,18.5781644 1.14842439,12.3519062 C1.16074622,6.12564808 6.21756003,1.0879629 12.4438202,1.09923803 C18.6700803,1.11051315 23.7086155,6.16647999 23.6983871,12.3927419 C23.6797118,18.6184472 18.6249249,23.6541132 12.3991935,23.6491935 Z M20.3967742,20.3129032 L20.3967742,19.8387097 C20.4028344,18.8251991 20.0027323,17.8514791 19.285832,17.1350334 C18.5689317,16.4185878 17.5949581,16.0191034 16.5814516,16.0258065 L8.21693548,16.0258065 C7.2035683,16.0193199 6.22980322,16.4189 5.51307822,17.1353219 C4.79635322,17.8517438 4.39636139,18.8253398 4.40241935,19.8387097 L4.40241935,20.3153226 C6.51586397,22.4504566 9.39535883,23.6518027 12.3995968,23.6518027 C15.4038347,23.6518027 18.2833296,22.4504566 20.3967742,20.3153226 L20.3967742,20.3129032 Z M17.7185484,9.75322581 C17.7688835,8.32398654 17.2253337,6.93767058 16.2169894,5.92352061 C15.208645,4.90937064 13.8254724,4.35787102 12.3959677,4.4 C10.9651859,4.36377109 9.58217786,4.91604712 8.56990945,5.92785825 C7.55764103,6.93966939 7.00474016,8.32242778 7.04032258,9.75322581 C7.10932441,12.6816089 9.46755376,15.038773 12.3959677,15.1064516 C15.3186554,15.0381333 17.6670103,12.6762575 17.7185484,9.75322581 Z" id="Path_20846" fill-rule="nonzero"></path>
                </g>
            </g>
        </g>
    </g>
</svg>