<?xml version="1.0" encoding="UTF-8"?>
<svg width="20px" height="19px" viewBox="0 0 20 19" version="1.1" xmlns="http://www.w3.org/2000/svg" xmlns:xlink="http://www.w3.org/1999/xlink">
    <!-- Generator: Sketch 50.2 (55047) - http://www.bohemiancoding.com/sketch -->
    <title>iconos/history</title>
    <desc>Created with Sketch.</desc>
    <defs></defs>
    <g id="Refund-RA" stroke="none" stroke-width="1" fill="none" fill-rule="evenodd" opacity="0.5">
        <g id="RA_Form_Payment-1280" transform="translate(-970.000000, -398.000000)" fill="#667380" fill-rule="nonzero">
            <g id="Selection-comments" transform="translate(945.000000, 387.000000)">
                <g id="Group-7" transform="translate(15.000000, 0.000000)">
                    <g id="Pestañas">
                        <g id="iconos/history-OFF" transform="translate(9.000000, 11.000000)">
                            <path d="M8.77443011,17.2803554 C8.61872501,17.3180321 8.45997562,17.3514919 8.30240336,17.3796706 C7.89049112,17.4540388 7.61816955,17.8386882 7.69435789,18.2389838 C7.73198527,18.4359196 7.84718107,18.5999473 8.00357621,18.7070265 C8.16476103,18.8171797 8.36990534,18.8669161 8.57894633,18.8291606 C8.76659615,18.7953461 8.95570722,18.7555806 9.14128691,18.7106129 C9.54804416,18.6123223 9.79584908,18.2122238 9.69437286,17.8174852 C9.59314019,17.4223919 9.1814309,17.181986 8.77443011,17.2803554 Z" id="Shape" transform="translate(8.699342, 18.050000) scale(-1, 1) translate(-8.699342, -18.050000) "></path>
                            <path d="M1.79817447,7.06847447 C1.85204152,7.23211006 1.95488236,7.36569605 2.08478008,7.45800012 C2.27738563,7.59473614 2.52940941,7.6407431 2.76991963,7.56058322 C3.17314123,7.42562945 3.39161119,6.98736129 3.25821828,6.58113222 C3.19744309,6.39594382 3.13000647,6.21017515 3.05817003,6.02929731 C2.90043415,5.6318137 2.45313202,5.43829431 2.05858671,5.59728775 C1.6644526,5.7561983 1.47238161,6.20719091 1.63024085,6.60479886 C1.69060485,6.75682909 1.74714469,6.91287974 1.79817447,7.06847447 Z" id="Shape" transform="translate(2.436184, 6.570833) scale(-1, 1) translate(-2.436184, -6.570833) "></path>
                            <path d="M5.83783803,16.2720437 C5.69938551,16.3577419 5.55648438,16.4406857 5.41253405,16.5183964 C5.03696218,16.7215065 4.90833018,17.1715988 5.12488519,17.5235593 C5.1836824,17.6192909 5.26199474,17.6975525 5.35218403,17.7573602 C5.59429757,17.9170703 5.92311706,17.9409934 6.19687449,17.7931267 C6.36802011,17.7005822 6.53820045,17.6021356 6.70309283,17.4999116 C7.06460541,17.2759869 7.1641116,16.8194416 6.92514566,16.4803477 C6.68622168,16.1411357 6.19947651,16.0479616 5.83783803,16.2720437 Z" id="Shape" transform="translate(6.037500, 17.020833) scale(-1, 1) translate(-6.037500, -17.020833) "></path>
                            <path d="M2.66364175,9.12483073 C2.64667733,8.70364191 2.28429717,8.37581484 1.85393427,8.39225924 C1.42411323,8.40886686 1.08899287,8.76374762 1.10587393,9.18477322 C1.11233459,9.34574879 1.11400185,9.50913186 1.11020882,9.66994422 C1.10416498,9.93407474 1.23612905,10.1695194 1.4412027,10.311031 C1.56337158,10.3952524 1.71163316,10.4462178 1.87239924,10.4498087 C2.3026371,10.459153 2.65918182,10.1250828 2.66872691,9.70368992 C2.67302012,9.51153935 2.67139454,9.31685888 2.66364175,9.12483073 Z" id="Shape" transform="translate(1.888158, 9.420833) scale(-1, 1) translate(-1.888158, -9.420833) "></path>
                            <path d="M4.3982594,14.2412378 C4.05686141,13.9933834 3.5738639,14.0606753 3.31817632,14.3904294 C3.22025693,14.5167114 3.11714046,14.6414369 3.0115492,14.7615325 C2.73560955,15.075242 2.77458757,15.5464447 3.09878573,15.8136565 C3.1172642,15.8288231 3.13594891,15.8427525 3.1553348,15.8558436 C3.47763562,16.0757196 3.92557353,16.0251909 4.18616946,15.7292822 C4.31226027,15.5859976 4.43517509,15.4370056 4.55219165,15.2861776 C4.80792048,14.9564235 4.73870871,14.488733 4.3982594,14.2412378 Z" id="Shape" transform="translate(3.767105, 15.041667) scale(-1, 1) translate(-3.767105, -15.041667) "></path>
                            <path d="M2.755675,11.4356553 C2.34845845,11.3077537 1.91479659,11.5348307 1.78719794,11.9427496 C1.73835674,12.0985908 1.68422649,12.2551771 1.62579887,12.4085347 C1.49749776,12.7461285 1.62042716,13.1175811 1.90223506,13.3166356 C1.95392739,13.3530192 2.01086746,13.3838563 2.07272471,13.4072842 C2.47142917,13.5596899 2.91790049,13.3593108 3.06987841,12.959753 C3.13925605,12.7774209 3.20363386,12.5911152 3.26185488,12.4058442 C3.38932957,11.9978425 3.16280891,11.5635568 2.755675,11.4356553 Z" id="Shape" transform="translate(2.436184, 12.429167) scale(-1, 1) translate(-2.436184, -12.429167) "></path>
                            <path d="M11.6459799,17.4732191 C10.9674257,17.3497135 10.3165089,17.1394002 9.69927623,16.846064 C9.69197122,16.8421968 9.68543729,16.8377947 9.67776703,16.8342565 C9.5323162,16.7648515 9.38710886,16.6905095 9.24636569,16.6128351 C9.24587869,16.6122591 9.24498585,16.6118888 9.24421477,16.6115597 C8.98598271,16.4674013 8.73395992,16.3078972 8.48912038,16.1331709 C4.91891914,13.5836564 4.06049946,8.5649347 6.57561394,4.94571017 C7.12251559,4.15900987 7.78434937,3.50268576 8.52219583,2.98249757 C8.53128651,2.97607956 8.54037719,2.96970268 8.5493867,2.96324353 C11.1494422,1.1471104 14.6799123,1.0247156 17.4407592,2.8909586 L16.8477954,3.75948856 C16.6829457,4.00123372 16.7843635,4.17739995 17.072952,4.15106964 L19.6486574,3.91730586 C19.9376111,3.89097555 20.1104152,3.63758745 20.032698,3.35470119 L19.3410354,0.828390223 C19.2636023,0.545174826 19.0653525,0.511274552 18.9003405,0.752978569 L18.3059968,1.62356558 C16.2799121,0.244803586 13.8498198,-0.28093865 11.4378277,0.143061623 C11.1948956,0.185683812 10.9553725,0.237850739 10.7191366,0.298575016 C10.7173104,0.298904145 10.7158493,0.299109851 10.7143883,0.29943898 C10.7052571,0.301701741 10.6960041,0.304705042 10.6871163,0.307214649 C8.60721802,0.84867279 6.79253211,2.07842169 5.49763816,3.83300772 C5.48672123,3.84613174 5.47547964,3.85896776 5.46517146,3.87324373 C5.42211249,3.93203437 5.37937819,3.99218268 5.33753672,4.05233098 C5.26911314,4.15090508 5.20166356,4.25194764 5.13713599,4.3529902 C5.12905989,4.36516797 5.12289122,4.37755145 5.11582971,4.38985264 C4.04726928,6.06845104 3.53186033,8.00907717 3.62025094,9.98475553 C3.62045385,9.99125582 3.6200886,9.99779726 3.62025094,10.0044621 C3.62881403,10.1974551 3.64391105,10.3931222 3.66440566,10.5857449 C3.66550141,10.5981695 3.66822049,10.6099358 3.67029025,10.6223604 C3.69147477,10.8160528 3.71805689,11.0101977 3.75137584,11.2043014 C4.09000358,13.1847522 5.011571,14.9668616 6.39250172,16.3535227 C6.39570781,16.3567728 6.39903565,16.360311 6.40228232,16.3636845 C6.40341865,16.3649599 6.40467674,16.3656182 6.40577249,16.3668113 C6.77678576,16.7377806 7.18034691,17.0808975 7.61487317,17.3911426 C8.75201952,18.2034327 10.0182616,18.7403653 11.3781296,18.9877468 C11.7907408,19.0629116 12.1848866,18.7844686 12.2589107,18.3663926 C12.3328942,17.9480287 12.0584694,17.5481371 11.6459799,17.4732191 Z" id="Shape" transform="translate(11.830921, 9.500000) scale(-1, 1) translate(-11.830921, -9.500000) "></path>
                            <path d="M9.67630527,3.35294118 C9.33246045,3.35294118 9.05394737,3.63161007 9.05394737,3.97484959 L9.05394737,10.1707935 L14.7224738,13.1001461 C14.813708,13.1473719 14.9113973,13.1696078 15.0075242,13.1696078 C15.23267,13.1696078 15.4501272,13.0470429 15.5606855,12.8331912 C15.7183616,12.5279707 15.5990458,12.1530007 15.2937257,11.995376 L10.2979642,9.4134553 L10.2979642,3.97484959 C10.2979231,3.63161007 10.019739,3.35294118 9.67630527,3.35294118 Z" id="Shape"></path>
                        </g>
                    </g>
                </g>
            </g>
        </g>
    </g>
</svg>