<?xml version="1.0" encoding="UTF-8"?>
<svg width="22px" height="22px" viewBox="0 0 22 22" version="1.1" xmlns="http://www.w3.org/2000/svg" xmlns:xlink="http://www.w3.org/1999/xlink">
    <!-- Generator: Sketch 50.2 (55047) - http://www.bohemiancoding.com/sketch -->
    <title>iconos/chat</title>
    <desc>Created with Sketch.</desc>
    <defs></defs>
    <g id="iconos/chat" stroke="none" stroke-width="1" fill="none" fill-rule="evenodd">
        <path d="M4.13299219,11.6980273 C4.13299219,12.9191992 4.56633203,14.1562266 5.3219375,15.092 C6.11849219,16.0784766 7.15932422,16.6217734 8.25266406,16.6217734 C9.34583203,16.6217734 10.385418,16.0787773 11.1799102,15.0928164 C11.9329805,14.1582461 12.3649023,12.9216914 12.3649023,11.7002188 L12.3649023,11.34375 C12.3649023,11.1539141 12.2109883,11 12.0211523,11 C11.8313164,11 11.6774023,11.1539141 11.6774023,11.34375 L11.6774023,11.7001758 C11.6774023,12.7675195 11.3009531,13.8468516 10.6445625,14.6614102 C9.9831875,15.4822422 9.13373828,15.9342734 8.25266406,15.9342734 C7.37116016,15.9342734 6.52033594,15.4817695 5.85685547,14.6600781 C5.19823047,13.8444453 4.82053516,12.7648125 4.82053516,11.6980273 L4.82053516,11.3917891 C4.82053516,10.4762539 5.32735156,9.24292188 5.52444922,8.79806641 C6.80238281,8.65158594 8.04349219,8.69120313 9.21619531,8.91717578 C9.23815234,8.92142969 9.26006641,8.92344922 9.28159375,8.92344922 C9.44307031,8.92344922 9.58705859,8.80910938 9.61876953,8.64466797 C9.65469141,8.45826953 9.53270312,8.27801563 9.34626172,8.24209375 C8.04400781,7.99115625 6.66522656,7.95630859 5.24816016,8.13866797 C5.24738672,8.13875391 5.24669922,8.13896875 5.24596875,8.13905469 C5.23900781,8.14 5.23213281,8.14141797 5.22525781,8.14279297 C5.22078906,8.14369531 5.21619141,8.14438281 5.21176562,8.14541406 C5.207125,8.14653125 5.20261328,8.14803516 5.19801563,8.14936719 C5.15908594,8.16041016 5.12312109,8.17759766 5.09149609,8.20037109 C5.09141016,8.20045703 5.09128125,8.2005 5.09115234,8.20058594 C5.08792969,8.20290625 5.08500781,8.20552734 5.08187109,8.20797656 C5.05995703,8.22490625 5.03984766,8.24445703 5.02227344,8.26680078 C5.0215,8.26778906 5.02059766,8.26869141 5.01982422,8.26967969 C5.01634375,8.27423438 5.01320703,8.27913281 5.00994141,8.28385938 C5.00671875,8.2885 5.00332422,8.29305469 5.00031641,8.29786719 C4.99816797,8.30130469 4.99632031,8.30495703 4.99430078,8.30852344 C4.9905625,8.31505469 4.98682422,8.32154297 4.98347266,8.32828906 C4.98317188,8.32889063 4.98278516,8.32944922 4.98248438,8.33009375 C4.96413672,8.36812109 4.72686328,8.86333594 4.50776562,9.51220703 C4.39372656,8.87115625 4.29116016,8.15955078 4.29116016,7.67288672 C4.29116016,6.42425781 5.00787891,5.86536328 5.71815234,5.86536328 C5.74371875,5.86536328 5.76855469,5.86235547 5.79253125,5.85707031 C5.81710937,5.86252734 5.84220312,5.86540625 5.86733984,5.86540625 C5.93978516,5.86540625 6.012875,5.84258984 6.07500781,5.79536719 C6.6460625,5.36159766 7.40841406,5.2380625 8.54687109,5.39472656 C8.73477344,5.42055078 8.90841016,5.28915234 8.93427734,5.10107813 C8.9601875,4.91300391 8.82866016,4.73953906 8.64062891,4.71367188 C7.77257422,4.59417578 6.66875,4.54269922 5.75325781,5.17966797 C5.74169922,5.17850781 5.73001172,5.17790625 5.71815234,5.17790625 C4.47313281,5.17790625 3.60366016,6.20391406 3.60366016,7.67292969 C3.60366016,8.77228516 4.06024609,10.807543 4.13299219,11.1247383 L4.13299219,11.6980273 Z" id="Shape" fill="#152C5A" fill-rule="nonzero"></path>
        <path d="M14.4689531,17.4940391 C14.4620352,17.4921055 14.4551172,17.4904297 14.4481133,17.4888828 L11.6453477,16.8896406 C11.3654922,16.8274219 11.34375,16.5279727 11.34375,16.4376953 L11.34375,16.2780234 C11.34375,16.0881875 11.1898359,15.9342734 11,15.9342734 C10.8101641,15.9342734 10.65625,16.0881875 10.65625,16.2780234 L10.65625,16.4376953 C10.65625,16.9710234 10.9461172,17.3918594 11.4051523,17.5362344 C10.6616641,18.3819453 9.49403125,18.8922852 8.25,18.8922852 C7.00609766,18.8922852 5.83842187,18.3819023 5.09489062,17.5362773 C5.54421484,17.3941367 5.82939844,16.9730859 5.82939844,16.4376953 L5.82939844,16.2780234 C5.82939844,16.0881875 5.67548437,15.9342734 5.48564844,15.9342734 C5.2958125,15.9342734 5.14189844,16.0881875 5.14189844,16.2780234 L5.14189844,16.4376953 C5.14189844,16.5543555 5.11392578,16.8319766 4.85735937,16.8890391 L2.05188672,17.4888828 C2.04488281,17.4903867 2.03792187,17.4921055 2.03104687,17.4940391 C1.41985937,17.6652695 0.899894531,18.0442539 0.527269531,18.59 C0.187257813,19.0880508 0,19.6892695 0,20.2828828 L0,20.9498438 C0,21.5288906 0.516097656,22 1.15048828,22 L15.3495117,22 C15.9839023,22 16.5,21.5288906 16.5,20.9498438 L16.5,20.2828828 C16.5,19.6892695 16.3127422,19.0880508 15.9727305,18.59 C15.6001055,18.0442539 15.0801406,17.6652695 14.4689531,17.4940391 Z M15.8125,20.9498437 C15.8125,21.1464258 15.6004492,21.3125 15.3495117,21.3125 L1.15048828,21.3125 C0.899550781,21.3125 0.6875,21.1464258 0.6875,20.9498437 L0.6875,20.2828828 C0.6875,19.4416406 1.20922656,18.4438633 2.20661719,18.1588516 L4.34697656,17.7011914 C5.19878906,18.8642695 6.67515234,19.5797422 8.25,19.5797422 C9.82501953,19.5797422 11.3012109,18.8642695 12.1530234,17.7011914 L14.2934258,18.1588516 C15.2907734,18.4438633 15.8125,19.4416406 15.8125,20.2828828 L15.8125,20.9498437 Z" id="Shape" fill="#152C5A" fill-rule="nonzero"></path>
        <path d="M19.25,0 L11.6875,0 C10.3607109,0 9.28125,1.07946094 9.28125,2.40625 L9.28125,6.53125 C9.28125,7.60821875 9.98855859,8.53492578 11,8.83497656 L11,9.82635156 C11,10.1054336 11.1665898,10.3547383 11.4244023,10.4615156 C11.5099531,10.4969648 11.5995,10.5141953 11.6881875,10.5141953 C11.8667227,10.5141953 12.0417773,10.4443281 12.1736055,10.3125 L13.5486055,8.9375 L19.25,8.9375 C20.5767891,8.9375 21.65625,7.85803906 21.65625,6.53125 L21.65625,2.40625 C21.65625,1.07946094 20.5767891,0 19.25,0 Z M20.96875,6.53125 C20.96875,7.47896875 20.1977187,8.25 19.25,8.25 L13.40625,8.25 C13.3150703,8.25 13.2276289,8.28622266 13.1631758,8.35067578 L11.6875,9.82605078 L11.6875,8.56251172 C11.6875,8.39489062 11.5665859,8.25171875 11.4013281,8.22361719 C10.5846211,8.08482813 9.96875,7.35728125 9.96875,6.53125 L9.96875,2.40625 C9.96875,1.45853125 10.7397813,0.6875 11.6875,0.6875 L19.25,0.6875 C20.1977187,0.6875 20.96875,1.45853125 20.96875,2.40625 L20.96875,6.53125 Z" id="Shape" fill="#152C5A" fill-rule="nonzero"></path>
        <path d="M19.25,2.0625 L11.6875,2.0625 C11.4976641,2.0625 11.34375,2.21641406 11.34375,2.40625 C11.34375,2.59608594 11.4976641,2.75 11.6875,2.75 L19.25,2.75 C19.4398359,2.75 19.59375,2.59608594 19.59375,2.40625 C19.59375,2.21641406 19.4398359,2.0625 19.25,2.0625 Z" id="Shape" fill="#152C5A" fill-rule="nonzero"></path>
        <path d="M11.6875,4.8125 L12.375,4.8125 C12.5648359,4.8125 12.71875,4.65858594 12.71875,4.46875 C12.71875,4.27891406 12.5648359,4.125 12.375,4.125 L11.6875,4.125 C11.4976641,4.125 11.34375,4.27891406 11.34375,4.46875 C11.34375,4.65858594 11.4976641,4.8125 11.6875,4.8125 Z" id="Shape" fill="#152C5A" fill-rule="nonzero"></path>
        <path d="M19.25,4.125 L13.75,4.125 C13.5601641,4.125 13.40625,4.27891406 13.40625,4.46875 C13.40625,4.65858594 13.5601641,4.8125 13.75,4.8125 L19.25,4.8125 C19.4398359,4.8125 19.59375,4.65858594 19.59375,4.46875 C19.59375,4.27891406 19.4398359,4.125 19.25,4.125 Z" id="Shape" fill="#152C5A" fill-rule="nonzero"></path>
        <path d="M19.25,6.1875 L11.6875,6.1875 C11.4976641,6.1875 11.34375,6.34141406 11.34375,6.53125 C11.34375,6.72108594 11.4976641,6.875 11.6875,6.875 L19.25,6.875 C19.4398359,6.875 19.59375,6.72108594 19.59375,6.53125 C19.59375,6.34141406 19.4398359,6.1875 19.25,6.1875 Z" id="Shape" fill="#152C5A" fill-rule="nonzero"></path>
    </g>
</svg>