<?xml version="1.0" encoding="UTF-8"?>
<svg width="24px" height="20px" viewBox="0 0 24 20" version="1.1" xmlns="http://www.w3.org/2000/svg" xmlns:xlink="http://www.w3.org/1999/xlink">
    <!-- Generator: Sketch 50.2 (55047) - http://www.bohemiancoding.com/sketch -->
    <title>ico_documents_grey</title>
    <desc>Created with Sketch.</desc>
    <defs></defs>
    <g id="Page-1" stroke="none" stroke-width="1" fill="none" fill-rule="evenodd" opacity="0.5">
        <g id="ico_documents_grey" fill="#667380" fill-rule="nonzero">
            <g id="iconos/files-OFF" transform="translate(0.000000, 0.000000)">
                <path d="M22.0498636,2.00454545 L13.2702273,2.00454545 C13.0945909,2.00454545 12.9242727,1.94118182 12.7909545,1.82636364 L11.1804091,0.437 C10.8693636,0.169090909 10.4723182,0.0215454545 10.0624091,0.0215454545 L4.29195455,0.0215454545 C3.61768182,0.0215454545 3.06909091,0.570136364 3.06909091,1.24440909 L3.06909091,2.87881818 L1.22286364,2.87881818 C0.548590909,2.87881818 0,3.42740909 0,4.10168182 L0,18.7555909 C0,19.4298636 0.548590909,19.9784545 1.22286364,19.9784545 L18.9807273,19.9784545 C19.655,19.9784545 20.2035909,19.4298636 20.2035909,18.7555909 L20.2035909,17.1215455 L22.0498636,17.1215455 C22.7241364,17.1215455 23.2727273,16.5729545 23.2727273,15.8986818 L23.2727273,3.22740909 C23.2727273,2.55309091 22.7241364,2.00454545 22.0498636,2.00454545 Z M19.2253182,18.7555909 C19.2253182,18.8904545 19.1155909,19.0001818 18.9807273,19.0001818 L1.22286364,19.0001818 C1.088,19.0001818 0.978272727,18.8904545 0.978272727,18.7555909 L0.978272727,8.70127273 L19.2253182,8.70127273 L19.2252727,18.7555909 L19.2253182,18.7555909 Z M19.2253182,7.723 L0.978272727,7.723 L0.978272727,4.10172727 C0.978272727,3.96686364 1.088,3.85713636 1.22286364,3.85713636 L6.993,3.85713636 C7.16886364,3.85713636 7.339,3.92036364 7.47218182,4.03527273 L9.08281818,5.42431818 C9.39354545,5.69227273 9.79059091,5.83981818 10.2009091,5.83981818 L18.9807273,5.83981818 C19.1155909,5.83981818 19.2253182,5.94954545 19.2253182,6.08440909 L19.2253182,7.723 Z M22.2944545,15.8986818 C22.2944545,16.0335455 22.1847273,16.1432727 22.0498636,16.1432727 L20.2035909,16.1432727 L20.2035909,6.08436364 C20.2035909,5.41009091 19.655,4.8615 18.9807273,4.8615 L10.2009091,4.8615 C10.0250455,4.8615 9.85481818,4.79827273 9.72168182,4.68340909 L8.11109091,3.29445455 C7.80036364,3.02645455 7.40331818,2.87886364 6.993,2.87886364 L4.04736364,2.87886364 L4.04736364,1.24440909 C4.04736364,1.10954545 4.15709091,0.999818182 4.29195455,0.999818182 L10.0624091,0.999818182 C10.2380455,0.999818182 10.4083636,1.06318182 10.5416818,1.178 L12.1522273,2.56736364 C12.4632727,2.83522727 12.8603182,2.98277273 13.2702273,2.98277273 L22.0499091,2.98277273 C22.1847727,2.98277273 22.2945,3.0925 22.2945,3.22736364 L22.2945,15.8986818 L22.2944545,15.8986818 Z" id="Shape"></path>
                <path d="M17.2792727,10.3686818 L14.3499545,10.3686818 C14.0798182,10.3686818 13.8608182,10.5876818 13.8608182,10.8578182 C13.8608182,11.1279091 14.0798182,11.3469545 14.3499545,11.3469545 L17.2792727,11.3469545 C17.5494091,11.3469545 17.7684091,11.1279091 17.7684091,10.8578182 C17.7684091,10.5876364 17.5494545,10.3686818 17.2792727,10.3686818 Z" id="Shape"></path>
                <path d="M17.2792727,12.7165455 L14.3499545,12.7165455 C14.0798182,12.7165455 13.8608182,12.9355909 13.8608182,13.2056818 C13.8608182,13.4757727 14.0798182,13.6948182 14.3499545,13.6948182 L17.2792727,13.6948182 C17.5494091,13.6948182 17.7684091,13.4757727 17.7684091,13.2056818 C17.7684091,12.9355909 17.5494545,12.7165455 17.2792727,12.7165455 Z" id="Shape"></path>
            </g>
        </g>
    </g>
</svg>
