<?xml version="1.0" encoding="UTF-8"?>
<svg width="19px" height="20px" viewBox="0 0 19 20" version="1.1" xmlns="http://www.w3.org/2000/svg" xmlns:xlink="http://www.w3.org/1999/xlink">
    <!-- Generator: Sketch 50.2 (55047) - http://www.bohemiancoding.com/sketch -->
    <title>ico_history</title>
    <desc>Created with Sketch.</desc>
    <defs>
        <rect id="path-1" x="20" y="244" width="1240" height="751"></rect>
        <filter x="-0.8%" y="-1.0%" width="101.7%" height="102.8%" filterUnits="objectBoundingBox" id="filter-2">
            <feOffset dx="0" dy="3" in="SourceAlpha" result="shadowOffsetOuter1"></feOffset>
            <feGaussianBlur stdDeviation="3" in="shadowOffsetOuter1" result="shadowBlurOuter1"></feGaussianBlur>
            <feColorMatrix values="0 0 0 0 0   0 0 0 0 0   0 0 0 0 0  0 0 0 0.15 0" type="matrix" in="shadowBlurOuter1"></feColorMatrix>
        </filter>
    </defs>
    <g id="Refund-RA" stroke="none" stroke-width="1" fill="none" fill-rule="evenodd">
        <g id="RA_to_from-1280" transform="translate(-970.000000, -397.000000)">
            <g id="Rectangle">
                <use fill="black" fill-opacity="1" filter="url(#filter-2)" xlink:href="#path-1"></use>
                <use fill="#FFFFFF" fill-rule="evenodd" xlink:href="#path-1"></use>
            </g>
            <g id="Selection-history" transform="translate(945.000000, 387.000000)">
                <g id="Pestañas" transform="translate(15.000000, 0.000000)">
                    <g id="Tab_small_history_select" fill="#FFFFFF" stroke="#E0E1E5">
                        <path d="M0.5,39.5 L39.5,39.5 L39.5,4 C39.5,2.06700338 37.9329966,0.5 36,0.5 L4,0.5 C2.06700338,0.5 0.5,2.06700338 0.5,4 L0.5,39.5 Z" id="Rectangle"></path>
                    </g>
                    <g id="iconos/history" transform="translate(9.000000, 11.000000)" fill="#152C5A">
                        <g id="time-left" transform="translate(10.103947, 9.500000) scale(-1, 1) translate(-10.103947, -9.500000) translate(0.156579, 0.000000)">
                            <path d="M11.4270617,17.2803554 C11.2713566,17.3180321 11.1126072,17.3514919 10.9550349,17.3796706 C10.5431227,17.4540388 10.2708011,17.8386882 10.3469895,18.2389838 C10.3846169,18.4359196 10.4998126,18.5999473 10.6562078,18.7070265 C10.8173926,18.8171797 11.0225369,18.8669161 11.2315779,18.8291606 C11.4192277,18.7953461 11.6083388,18.7555806 11.7939185,18.7106129 C12.2006757,18.6123223 12.4484807,18.2122238 12.3470044,17.8174852 C12.2457718,17.4223919 11.8340625,17.181986 11.4270617,17.2803554 Z" id="Shape" fill-rule="nonzero"></path>
                            <path d="M16.9771218,7.06847447 C17.0309889,7.23211006 17.1338297,7.36569605 17.2637274,7.45800012 C17.456333,7.59473614 17.7083568,7.6407431 17.948867,7.56058322 C18.3520886,7.42562945 18.5705586,6.98736129 18.4371656,6.58113222 C18.3763905,6.39594382 18.3089538,6.21017515 18.2371174,6.02929731 C18.0793815,5.6318137 17.6320794,5.43829431 17.2375341,5.59728775 C16.8434,5.7561983 16.651329,6.20719091 16.8091882,6.60479886 C16.8695522,6.75682909 16.9260921,6.91287974 16.9771218,7.06847447 Z" id="Shape" fill-rule="nonzero"></path>
                            <path d="M13.8141538,16.2720437 C13.6757013,16.3577419 13.5328002,16.4406857 13.3888498,16.5183964 C13.013278,16.7215065 12.884646,17.1715988 13.101201,17.5235593 C13.1599982,17.6192909 13.2383105,17.6975525 13.3284998,17.7573602 C13.5706134,17.9170703 13.8994328,17.9409934 14.1731903,17.7931267 C14.3443359,17.7005822 14.5145162,17.6021356 14.6794086,17.4999116 C15.0409212,17.2759869 15.1404274,16.8194416 14.9014614,16.4803477 C14.6625375,16.1411357 14.1757923,16.0479616 13.8141538,16.2720437 Z" id="Shape" fill-rule="nonzero"></path>
                            <path d="M18.9386418,9.12483073 C18.9216773,8.70364191 18.5592972,8.37581484 18.1289343,8.39225924 C17.6991132,8.40886686 17.3639929,8.76374762 17.3808739,9.18477322 C17.3873346,9.34574879 17.3890019,9.50913186 17.3852088,9.66994422 C17.379165,9.93407474 17.511129,10.1695194 17.7162027,10.311031 C17.8383716,10.3952524 17.9866332,10.4462178 18.1473992,10.4498087 C18.5776371,10.459153 18.9341818,10.1250828 18.9437269,9.70368992 C18.9480201,9.51153935 18.9463945,9.31685888 18.9386418,9.12483073 Z" id="Shape" fill-rule="nonzero"></path>
                            <path d="M16.9153647,14.2412378 C16.5739667,13.9933834 16.0909692,14.0606753 15.8352816,14.3904294 C15.7373622,14.5167114 15.6342457,14.6414369 15.5286545,14.7615325 C15.2527148,15.075242 15.2916928,15.5464447 15.615891,15.8136565 C15.6343695,15.8288231 15.6530542,15.8427525 15.6724401,15.8558436 C15.9947409,16.0757196 16.4426788,16.0251909 16.7032747,15.7292822 C16.8293655,15.5859976 16.9522804,15.4370056 17.0692969,15.2861776 C17.3250257,14.9564235 17.255814,14.488733 16.9153647,14.2412378 Z" id="Shape" fill-rule="nonzero"></path>
                            <path d="M17.9346224,11.4356553 C17.5274058,11.3077537 17.093744,11.5348307 16.9661453,11.9427496 C16.9173041,12.0985908 16.8631739,12.2551771 16.8047462,12.4085347 C16.6764451,12.7461285 16.7993745,13.1175811 17.0811824,13.3166356 C17.1328748,13.3530192 17.1898148,13.3838563 17.2516721,13.4072842 C17.6503765,13.5596899 18.0968479,13.3593108 18.2488258,12.959753 C18.3182034,12.7774209 18.3825812,12.5911152 18.4408022,12.4058442 C18.5682769,11.9978425 18.3417563,11.5635568 17.9346224,11.4356553 Z" id="Shape" fill-rule="nonzero"></path>
                            <path d="M8.03545355,17.4732191 C7.35689941,17.3497135 6.70598256,17.1394002 6.08874991,16.846064 C6.0814449,16.8421968 6.07491098,16.8377947 6.06724072,16.8342565 C5.92178988,16.7648515 5.77658254,16.6905095 5.63583937,16.6128351 C5.63535237,16.6122591 5.63445954,16.6118888 5.63368845,16.6115597 C5.3754564,16.4674013 5.1234336,16.3078972 4.87859406,16.1331709 C1.30839283,13.5836564 0.449973144,8.5649347 2.96508762,4.94571017 C3.51198927,4.15900987 4.17382306,3.50268576 4.91166952,2.98249757 C4.92076019,2.97607956 4.92985087,2.96970268 4.93886038,2.96324353 C7.53891588,1.1471104 11.069386,1.0247156 13.8302328,2.8909586 L13.2372691,3.75948856 C13.0724194,4.00123372 13.1738372,4.17739995 13.4624257,4.15106964 L16.0381311,3.91730586 C16.3270848,3.89097555 16.4998888,3.63758745 16.4221717,3.35470119 L15.7305091,0.828390223 C15.653076,0.545174826 15.4548262,0.511274552 15.2898142,0.752978569 L14.6954705,1.62356558 C12.6693858,0.244803586 10.2392935,-0.28093865 7.82730139,0.143061623 C7.58436927,0.185683812 7.34484615,0.237850739 7.10861029,0.298575016 C7.10678403,0.298904145 7.10532303,0.299109851 7.10386203,0.29943898 C7.09473077,0.301701741 7.08547776,0.304705042 7.07659,0.307214649 C4.9966917,0.84867279 3.1820058,2.07842169 1.88711185,3.83300772 C1.87619492,3.84613174 1.86495332,3.85896776 1.85464514,3.87324373 C1.81158617,3.93203437 1.76885187,3.99218268 1.72701041,4.05233098 C1.65858683,4.15090508 1.59113725,4.25194764 1.52660967,4.3529902 C1.51853358,4.36516797 1.5123649,4.37755145 1.50530339,4.38985264 C0.436742961,6.06845104 -0.0786659831,8.00907717 0.00972462172,9.98475553 C0.00992753863,9.99125582 0.00956228819,9.99779726 0.00972462172,10.0044621 C0.0182877152,10.1974551 0.0333847331,10.3931222 0.0538793407,10.5857449 C0.054975092,10.5981695 0.0576941786,10.6099358 0.059763931,10.6223604 C0.0809484561,10.8160528 0.107530571,11.0101977 0.140849527,11.2043014 C0.479477262,13.1847522 1.40104469,14.9668616 2.78197541,16.3535227 C2.78518149,16.3567728 2.78850933,16.360311 2.791756,16.3636845 C2.79289234,16.3649599 2.79415042,16.3656182 2.79524617,16.3668113 C3.16625945,16.7377806 3.56982059,17.0808975 4.00434686,17.3911426 C5.1414932,18.2034327 6.40773529,18.7403653 7.76760323,18.9877468 C8.18021447,19.0629116 8.57436027,18.7844686 8.64838436,18.3663926 C8.72236787,17.9480287 8.44794304,17.5481371 8.03545355,17.4732191 Z" id="Shape" fill-rule="nonzero"></path>
                            <path d="M10.3750105,3.35294118 C10.7188553,3.35294118 10.9973684,3.63161007 10.9973684,3.97484959 L10.9973684,10.1707935 L5.328842,13.1001461 C5.23760779,13.1473719 5.13991852,13.1696078 5.04379163,13.1696078 C4.81864584,13.1696078 4.60118855,13.0470429 4.49063029,12.8331912 C4.33295422,12.5279707 4.45226998,12.1530007 4.75759005,11.995376 L9.75335156,9.4134553 L9.75335156,3.97484959 C9.75339268,3.63161007 10.0315768,3.35294118 10.3750105,3.35294118 Z" id="Shape" fill-rule="nonzero"></path>
                        </g>
                    </g>
                </g>
                <g id="Pestañas" transform="translate(15.000000, 0.000000)">
                    <g id="Tab_small_history_select" fill="#FFFFFF" stroke="#E0E1E5">
                        <path d="M0.5,39.5 L39.5,39.5 L39.5,4 C39.5,2.06700338 37.9329966,0.5 36,0.5 L4,0.5 C2.06700338,0.5 0.5,2.06700338 0.5,4 L0.5,39.5 Z" id="Rectangle"></path>
                    </g>
                    <g id="iconos/history" transform="translate(9.000000, 11.000000)" fill="#152C5A">
                        <g id="time-left" transform="translate(10.103947, 9.500000) scale(-1, 1) translate(-10.103947, -9.500000) translate(0.156579, 0.000000)">
                            <path d="M11.4270617,17.2803554 C11.2713566,17.3180321 11.1126072,17.3514919 10.9550349,17.3796706 C10.5431227,17.4540388 10.2708011,17.8386882 10.3469895,18.2389838 C10.3846169,18.4359196 10.4998126,18.5999473 10.6562078,18.7070265 C10.8173926,18.8171797 11.0225369,18.8669161 11.2315779,18.8291606 C11.4192277,18.7953461 11.6083388,18.7555806 11.7939185,18.7106129 C12.2006757,18.6123223 12.4484807,18.2122238 12.3470044,17.8174852 C12.2457718,17.4223919 11.8340625,17.181986 11.4270617,17.2803554 Z" id="Shape" fill-rule="nonzero"></path>
                            <path d="M16.9771218,7.06847447 C17.0309889,7.23211006 17.1338297,7.36569605 17.2637274,7.45800012 C17.456333,7.59473614 17.7083568,7.6407431 17.948867,7.56058322 C18.3520886,7.42562945 18.5705586,6.98736129 18.4371656,6.58113222 C18.3763905,6.39594382 18.3089538,6.21017515 18.2371174,6.02929731 C18.0793815,5.6318137 17.6320794,5.43829431 17.2375341,5.59728775 C16.8434,5.7561983 16.651329,6.20719091 16.8091882,6.60479886 C16.8695522,6.75682909 16.9260921,6.91287974 16.9771218,7.06847447 Z" id="Shape" fill-rule="nonzero"></path>
                            <path d="M13.8141538,16.2720437 C13.6757013,16.3577419 13.5328002,16.4406857 13.3888498,16.5183964 C13.013278,16.7215065 12.884646,17.1715988 13.101201,17.5235593 C13.1599982,17.6192909 13.2383105,17.6975525 13.3284998,17.7573602 C13.5706134,17.9170703 13.8994328,17.9409934 14.1731903,17.7931267 C14.3443359,17.7005822 14.5145162,17.6021356 14.6794086,17.4999116 C15.0409212,17.2759869 15.1404274,16.8194416 14.9014614,16.4803477 C14.6625375,16.1411357 14.1757923,16.0479616 13.8141538,16.2720437 Z" id="Shape" fill-rule="nonzero"></path>
                            <path d="M18.9386418,9.12483073 C18.9216773,8.70364191 18.5592972,8.37581484 18.1289343,8.39225924 C17.6991132,8.40886686 17.3639929,8.76374762 17.3808739,9.18477322 C17.3873346,9.34574879 17.3890019,9.50913186 17.3852088,9.66994422 C17.379165,9.93407474 17.511129,10.1695194 17.7162027,10.311031 C17.8383716,10.3952524 17.9866332,10.4462178 18.1473992,10.4498087 C18.5776371,10.459153 18.9341818,10.1250828 18.9437269,9.70368992 C18.9480201,9.51153935 18.9463945,9.31685888 18.9386418,9.12483073 Z" id="Shape" fill-rule="nonzero"></path>
                            <path d="M16.9153647,14.2412378 C16.5739667,13.9933834 16.0909692,14.0606753 15.8352816,14.3904294 C15.7373622,14.5167114 15.6342457,14.6414369 15.5286545,14.7615325 C15.2527148,15.075242 15.2916928,15.5464447 15.615891,15.8136565 C15.6343695,15.8288231 15.6530542,15.8427525 15.6724401,15.8558436 C15.9947409,16.0757196 16.4426788,16.0251909 16.7032747,15.7292822 C16.8293655,15.5859976 16.9522804,15.4370056 17.0692969,15.2861776 C17.3250257,14.9564235 17.255814,14.488733 16.9153647,14.2412378 Z" id="Shape" fill-rule="nonzero"></path>
                            <path d="M17.9346224,11.4356553 C17.5274058,11.3077537 17.093744,11.5348307 16.9661453,11.9427496 C16.9173041,12.0985908 16.8631739,12.2551771 16.8047462,12.4085347 C16.6764451,12.7461285 16.7993745,13.1175811 17.0811824,13.3166356 C17.1328748,13.3530192 17.1898148,13.3838563 17.2516721,13.4072842 C17.6503765,13.5596899 18.0968479,13.3593108 18.2488258,12.959753 C18.3182034,12.7774209 18.3825812,12.5911152 18.4408022,12.4058442 C18.5682769,11.9978425 18.3417563,11.5635568 17.9346224,11.4356553 Z" id="Shape" fill-rule="nonzero"></path>
                            <path d="M8.03545355,17.4732191 C7.35689941,17.3497135 6.70598256,17.1394002 6.08874991,16.846064 C6.0814449,16.8421968 6.07491098,16.8377947 6.06724072,16.8342565 C5.92178988,16.7648515 5.77658254,16.6905095 5.63583937,16.6128351 C5.63535237,16.6122591 5.63445954,16.6118888 5.63368845,16.6115597 C5.3754564,16.4674013 5.1234336,16.3078972 4.87859406,16.1331709 C1.30839283,13.5836564 0.449973144,8.5649347 2.96508762,4.94571017 C3.51198927,4.15900987 4.17382306,3.50268576 4.91166952,2.98249757 C4.92076019,2.97607956 4.92985087,2.96970268 4.93886038,2.96324353 C7.53891588,1.1471104 11.069386,1.0247156 13.8302328,2.8909586 L13.2372691,3.75948856 C13.0724194,4.00123372 13.1738372,4.17739995 13.4624257,4.15106964 L16.0381311,3.91730586 C16.3270848,3.89097555 16.4998888,3.63758745 16.4221717,3.35470119 L15.7305091,0.828390223 C15.653076,0.545174826 15.4548262,0.511274552 15.2898142,0.752978569 L14.6954705,1.62356558 C12.6693858,0.244803586 10.2392935,-0.28093865 7.82730139,0.143061623 C7.58436927,0.185683812 7.34484615,0.237850739 7.10861029,0.298575016 C7.10678403,0.298904145 7.10532303,0.299109851 7.10386203,0.29943898 C7.09473077,0.301701741 7.08547776,0.304705042 7.07659,0.307214649 C4.9966917,0.84867279 3.1820058,2.07842169 1.88711185,3.83300772 C1.87619492,3.84613174 1.86495332,3.85896776 1.85464514,3.87324373 C1.81158617,3.93203437 1.76885187,3.99218268 1.72701041,4.05233098 C1.65858683,4.15090508 1.59113725,4.25194764 1.52660967,4.3529902 C1.51853358,4.36516797 1.5123649,4.37755145 1.50530339,4.38985264 C0.436742961,6.06845104 -0.0786659831,8.00907717 0.00972462172,9.98475553 C0.00992753863,9.99125582 0.00956228819,9.99779726 0.00972462172,10.0044621 C0.0182877152,10.1974551 0.0333847331,10.3931222 0.0538793407,10.5857449 C0.054975092,10.5981695 0.0576941786,10.6099358 0.059763931,10.6223604 C0.0809484561,10.8160528 0.107530571,11.0101977 0.140849527,11.2043014 C0.479477262,13.1847522 1.40104469,14.9668616 2.78197541,16.3535227 C2.78518149,16.3567728 2.78850933,16.360311 2.791756,16.3636845 C2.79289234,16.3649599 2.79415042,16.3656182 2.79524617,16.3668113 C3.16625945,16.7377806 3.56982059,17.0808975 4.00434686,17.3911426 C5.1414932,18.2034327 6.40773529,18.7403653 7.76760323,18.9877468 C8.18021447,19.0629116 8.57436027,18.7844686 8.64838436,18.3663926 C8.72236787,17.9480287 8.44794304,17.5481371 8.03545355,17.4732191 Z" id="Shape" fill-rule="nonzero"></path>
                            <path d="M10.3750105,3.35294118 C10.7188553,3.35294118 10.9973684,3.63161007 10.9973684,3.97484959 L10.9973684,10.1707935 L5.328842,13.1001461 C5.23760779,13.1473719 5.13991852,13.1696078 5.04379163,13.1696078 C4.81864584,13.1696078 4.60118855,13.0470429 4.49063029,12.8331912 C4.33295422,12.5279707 4.45226998,12.1530007 4.75759005,11.995376 L9.75335156,9.4134553 L9.75335156,3.97484959 C9.75339268,3.63161007 10.0315768,3.35294118 10.3750105,3.35294118 Z" id="Shape" fill-rule="nonzero"></path>
                        </g>
                    </g>
                </g>
            </g>
        </g>
    </g>
</svg>