<?xml version="1.0" encoding="UTF-8"?>
<svg width="18px" height="18px" viewBox="0 0 18 18" version="1.1" xmlns="http://www.w3.org/2000/svg" xmlns:xlink="http://www.w3.org/1999/xlink">
    <!-- Generator: Sketch 51.2 (57519) - http://www.bohemiancoding.com/sketch -->
    <title>ico_edit</title>
    <desc>Created with Sketch.</desc>
    <defs></defs>
    <g id="Symbols" stroke="none" stroke-width="1" fill="none" fill-rule="evenodd">
        <g id="icons/edit" transform="translate(-11.000000, -11.000000)" fill="#667380" fill-rule="nonzero">
            <g id="noun_1714928_cc" transform="translate(11.000000, 11.000000)">
                <g id="Group">
                    <path d="M17.1021845,2.4815534 C16.8116505,2.77208738 16.518932,3.06480583 16.2283981,3.35533981 C15.5293689,4.05436893 14.8303398,4.75339806 14.1313107,5.45242718 C13.2881068,6.29563107 12.4470874,7.13665049 11.6038835,7.97985437 C10.8764563,8.70728155 10.1468447,9.4368932 9.41941748,10.1643204 C9.06553398,10.5182039 8.69417476,10.8633495 8.35339806,11.2303398 C8.34902913,11.2347087 8.34247573,11.2412621 8.3381068,11.2456311 C8.4407767,11.2019417 8.5434466,11.1604369 8.6461165,11.1167476 C7.99296117,11.1211165 7.33980583,11.1276699 6.68665049,11.1320388 C6.59271845,11.1320388 6.50097087,11.1342233 6.40703883,11.1342233 C6.55339806,11.2805825 6.69757282,11.4247573 6.84393204,11.5711165 C6.84830097,10.9179612 6.85485437,10.2648058 6.8592233,9.61165049 C6.8592233,9.51771845 6.86140777,9.42597087 6.86140777,9.33203883 C6.81771845,9.43470874 6.77621359,9.53737864 6.73252427,9.64004854 C6.8461165,9.52645631 6.9618932,9.41067961 7.07548544,9.29708738 C7.37912621,8.9934466 7.68276699,8.68980583 7.98640777,8.38616505 C8.42330097,7.94927184 8.86019417,7.51237864 9.29708738,7.07548544 C9.80169903,6.57087379 10.3084951,6.06407767 10.8131068,5.55946602 C11.3308252,5.04174757 11.8463592,4.52621359 12.3640777,4.00849515 C12.8337379,3.53883495 13.3012136,3.07135922 13.7708738,2.60169903 C14.1334951,2.23907767 14.4961165,1.87645631 14.8609223,1.51165049 C15.0553398,1.31723301 15.2497573,1.12281553 15.4441748,0.928398058 C15.459466,0.913106796 15.4747573,0.897815534 15.4900485,0.882524272 C15.492233,0.880339806 15.4944175,0.87815534 15.4966019,0.875970874 C15.5468447,0.823543689 15.4878641,0.88907767 15.4813107,0.884708738 C15.4813107,0.884708738 15.5184466,0.862864078 15.5206311,0.860679612 C15.5621359,0.834466019 15.4900485,0.880339806 15.4856796,0.875970874 C15.4878641,0.87815534 15.525,0.865048544 15.5293689,0.865048544 C15.5752427,0.849757282 15.4900485,0.875970874 15.4878641,0.871601942 C15.4900485,0.873786408 15.5271845,0.871601942 15.5315534,0.871601942 C15.5883495,0.869417476 15.4485437,0.85631068 15.5031553,0.869417476 C15.5533981,0.880339806 15.463835,0.851941748 15.4682039,0.849757282 C15.4813107,0.847572816 15.5118932,0.884708738 15.5206311,0.87815534 C15.5118932,0.882524272 15.4550971,0.816990291 15.5053398,0.869417476 C15.5097087,0.873786408 15.5118932,0.875970874 15.5162621,0.880339806 C15.5381068,0.9 15.557767,0.92184466 15.5774272,0.941504854 C15.6626214,1.02669903 15.75,1.11407767 15.8351942,1.19927184 C16.2502427,1.61432039 16.6718447,2.02718447 17.0825243,2.44660194 C17.0868932,2.45097087 17.0890777,2.45533981 17.0934466,2.45752427 C17.1218447,2.48592233 17.1174757,2.49247573 17.1,2.4618932 C17.0694175,2.40728155 17.0978155,2.46407767 17.1,2.4684466 C17.1087379,2.50121359 17.1,2.49684466 17.1021845,2.47063107 C17.0978155,2.4618932 17.0956311,2.45533981 17.0912621,2.44660194 C17.0934466,2.45533981 17.0956311,2.46626214 17.1,2.475 C17.0978155,2.48373786 17.1174757,2.54490291 17.1021845,2.475 C17.0803398,2.38762136 17.1,2.56674757 17.0978155,2.47718447 C17.0978155,2.41165049 17.1043689,2.46626214 17.0934466,2.47718447 C17.0912621,2.4815534 17.0890777,2.48592233 17.0890777,2.49247573 C17.0803398,2.51432039 17.0825243,2.51213592 17.0934466,2.4815534 C17.1240291,2.45533981 17.1021845,2.46407767 17.0868932,2.48373786 C17.1021845,2.48592233 17.1546117,2.42475728 17.1021845,2.4815534 C16.9470874,2.64975728 16.9230583,2.93592233 17.1021845,3.09975728 C17.2725728,3.25485437 17.5543689,3.2788835 17.7203883,3.09975728 C18.0546117,2.74150485 18.0589806,2.20631068 17.7203883,1.85024272 C17.6679612,1.7934466 17.611165,1.74101942 17.5543689,1.6842233 C17.2791262,1.40898058 17.001699,1.1315534 16.7264563,0.85631068 C16.5298544,0.659708738 16.3354369,0.456553398 16.134466,0.264320388 C15.7652913,-0.0873786408 15.2169903,-0.0677184466 14.8587379,0.286165049 C14.6402913,0.502427184 14.4240291,0.720873786 14.207767,0.937135922 C13.7643204,1.38058252 13.3230583,1.82184466 12.8796117,2.26529126 C12.3050971,2.83980583 11.7283981,3.41650485 11.1538835,3.99101942 C10.5444175,4.60048544 9.93495146,5.20995146 9.32548544,5.81941748 C8.77936893,6.36553398 8.23543689,6.90946602 7.68932039,7.45558252 C7.30048544,7.84441748 6.91165049,8.23325243 6.52281553,8.62208738 C6.41796117,8.72694175 6.3131068,8.83179612 6.20825243,8.93665049 C6.09029126,9.05461165 6.00072816,9.15291262 5.98980583,9.34514563 C5.97451456,9.62694175 5.98543689,9.9131068 5.98325243,10.1970874 C5.98106796,10.5881068 5.97669903,10.9769417 5.97451456,11.3679612 C5.97451456,11.4378641 5.9723301,11.507767 5.9723301,11.5754854 C5.97014563,11.8092233 6.17330097,12.0145631 6.4092233,12.0123786 C6.93786408,12.0080097 7.46650485,12.0036408 7.99514563,11.9992718 C8.2092233,11.9970874 8.42330097,12.0014563 8.63737864,11.9949029 C8.80121359,11.9883495 8.90825243,11.9162621 9.0131068,11.8114078 C9.5461165,11.2783981 10.0813107,10.7432039 10.6143204,10.2101942 C11.5645631,9.25995146 12.5126214,8.3118932 13.4628641,7.36165049 C14.3956311,6.4288835 15.3262136,5.49830097 16.2589806,4.56553398 C16.7395631,4.08495146 17.2288835,3.6131068 17.7007282,3.12378641 C17.7072816,3.11723301 17.713835,3.11067961 17.7203883,3.10412621 C17.8820388,2.94247573 17.8951456,2.64538835 17.7203883,2.48592233 C17.5456311,2.32208738 17.2747573,2.30898058 17.1021845,2.4815534 Z" id="Shape"></path>
                    <path d="M17.1021845,2.4815534 C16.5953883,2.98834951 16.0907767,3.49296117 15.5839806,3.99975728 C15.5140777,4.06966019 15.4419903,4.14174757 15.3720874,4.21165049 C15.5774272,4.21165049 15.7849515,4.21165049 15.9902913,4.21165049 C15.3415049,3.56286408 14.6927184,2.91407767 14.0461165,2.26747573 C13.9543689,2.17572816 13.8626214,2.08398058 13.7708738,1.99223301 C13.7708738,2.19757282 13.7708738,2.40509709 13.7708738,2.61043689 C14.301699,2.07961165 14.8347087,1.54660194 15.365534,1.0157767 C15.4026699,0.978640777 15.4398058,0.941504854 15.4769417,0.904368932 C15.4834951,0.897815534 15.492233,0.88907767 15.4987864,0.882524272 C15.5053398,0.873786408 15.525,0.860679612 15.525,0.858495146 C15.5184466,0.862864078 15.5118932,0.869417476 15.5053398,0.873786408 C15.4769417,0.893446602 15.4791262,0.893446602 15.5118932,0.873786408 C15.5206311,0.869417476 15.5293689,0.865048544 15.5381068,0.860679612 C15.4791262,0.884708738 15.4747573,0.88907767 15.5184466,0.873786408 C15.586165,0.847572816 15.4900485,0.904368932 15.4900485,0.87815534 C15.4900485,0.87815534 15.5533981,0.87815534 15.5490291,0.880339806 C15.5315534,0.886893204 15.4529126,0.85631068 15.5206311,0.882524272 C15.5053398,0.875970874 15.431068,0.858495146 15.4987864,0.873786408 C15.5752427,0.891262136 15.4813107,0.884708738 15.4856796,0.858495146 C15.4813107,0.88907767 15.5009709,0.871601942 15.5097087,0.880339806 C15.5118932,0.882524272 15.5140777,0.884708738 15.5162621,0.886893204 C15.5468447,0.917475728 15.5774272,0.948058252 15.6080097,0.978640777 C15.9182039,1.28883495 16.2305825,1.60121359 16.5407767,1.91140777 C16.6980583,2.06868932 16.8531553,2.22378641 17.0104369,2.38106796 C17.0410194,2.41165049 17.0694175,2.44223301 17.1,2.47063107 C17.1480583,2.51650485 17.1021845,2.45752427 17.0912621,2.45533981 C17.0978155,2.45533981 17.1196602,2.50776699 17.1196602,2.50776699 C17.1131068,2.49247573 17.1043689,2.475 17.0978155,2.45970874 C17.1043689,2.47936893 17.1087379,2.49902913 17.1109223,2.51868932 C17.1371359,2.50121359 17.0628641,2.42475728 17.1021845,2.49247573 C17.1021845,2.50339806 17.1,2.51213592 17.1,2.52305825 C17.1087379,2.4618932 17.1109223,2.44660194 17.1021845,2.4815534 C17.0912621,2.50339806 17.0628641,2.5776699 17.1065534,2.475 C17.0759709,2.54490291 17.165534,2.41383495 17.1021845,2.4815534 C16.9470874,2.64975728 16.9230583,2.93592233 17.1021845,3.09975728 C17.2725728,3.25485437 17.5543689,3.2788835 17.7203883,3.09975728 C18.0589806,2.73495146 18.0567961,2.19320388 17.7072816,1.83495146 C17.6002427,1.72572816 17.4910194,1.61868932 17.3839806,1.51165049 C17.034466,1.16213592 16.6849515,0.812621359 16.3376214,0.465291262 C16.2415049,0.369174757 16.1475728,0.266504854 16.040534,0.183495146 C15.6779126,-0.0961165049 15.1820388,-0.0305825243 14.8631068,0.283980583 C14.5769417,0.565776699 14.2951456,0.851941748 14.011165,1.13592233 C13.725,1.42208738 13.438835,1.70825243 13.1526699,1.99441748 C12.9866505,2.16043689 12.984466,2.44441748 13.1526699,2.61262136 C13.8014563,3.26140777 14.4502427,3.91019417 15.0968447,4.55679612 C15.1885922,4.64854369 15.2803398,4.74029126 15.3720874,4.83203883 C15.5381068,4.99805825 15.8220874,5.00024272 15.9902913,4.83203883 C16.4970874,4.32524272 17.001699,3.82063107 17.5084951,3.31383495 C17.5783981,3.24393204 17.6504854,3.17184466 17.7203883,3.10194175 C17.8820388,2.94029126 17.8951456,2.64320388 17.7203883,2.48373786 C17.5456311,2.32208738 17.2747573,2.30898058 17.1021845,2.4815534 Z" id="Shape"></path>
                    <path d="M17.1087379,7.51237864 C17.1087379,8.05412621 17.1087379,8.59587379 17.1087379,9.13762136 C17.1087379,10.2757282 17.1087379,11.4116505 17.1087379,12.5497573 C17.1087379,13.5502427 17.1087379,14.5507282 17.1087379,15.5512136 C17.1087379,15.7740291 17.1087379,15.9990291 17.1087379,16.2218447 C17.1087379,16.232767 17.1087379,16.2458738 17.1087379,16.2567961 C17.1087379,16.2873786 17.1087379,16.3179612 17.1065534,16.3485437 C17.1065534,16.359466 17.1043689,16.3682039 17.1043689,16.3791262 C17.1,16.4271845 17.1,16.4184466 17.1087379,16.3529126 C17.1109223,16.3550971 17.0978155,16.4140777 17.0978155,16.4118932 C17.0868932,16.4599515 17.0737864,16.5080097 17.0584951,16.5538835 C17.0519417,16.5735437 17.0453883,16.6456311 17.0497573,16.584466 C17.0650485,16.5495146 17.0650485,16.551699 17.0497573,16.5866505 C17.0410194,16.6041262 17.0322816,16.6216019 17.0235437,16.6390777 C17.001699,16.6805825 16.9776699,16.7220874 16.9492718,16.7635922 C16.9449029,16.7701456 16.9208738,16.8116505 16.9165049,16.8116505 C16.9274272,16.7963592 16.9383495,16.7832524 16.9492718,16.7679612 C16.9383495,16.7832524 16.9252427,16.7985437 16.9121359,16.8116505 C16.8815534,16.8466019 16.8466019,16.8815534 16.8116505,16.9143204 C16.7985437,16.9274272 16.7832524,16.9383495 16.7679612,16.9514563 C16.7046117,17.0082524 16.8466019,16.9033981 16.7526699,16.9601942 C16.715534,16.9820388 16.6805825,17.0082524 16.6434466,17.0279126 C16.617233,17.0410194 16.5910194,17.0541262 16.5669903,17.067233 C16.490534,17.1043689 16.5910194,17.0563107 16.5910194,17.0563107 C16.588835,17.0716019 16.4708738,17.0956311 16.4512136,17.1021845 C16.4228155,17.1087379 16.3944175,17.1152913 16.363835,17.1218447 C16.265534,17.1458738 16.4621359,17.1174757 16.3616505,17.1218447 C15.9837379,17.1436893 15.6036408,17.1283981 15.2257282,17.1283981 C14.3453883,17.1283981 13.4650485,17.1283981 12.5847087,17.1283981 C11.4291262,17.1283981 10.2735437,17.1283981 9.11796117,17.1283981 C7.95582524,17.1283981 6.79587379,17.1283981 5.63373786,17.1283981 C4.72718447,17.1283981 3.82281553,17.1283981 2.91626214,17.1283981 C2.52961165,17.1283981 2.14296117,17.132767 1.75849515,17.1283981 C1.73665049,17.1283981 1.71480583,17.1283981 1.69514563,17.1262136 C1.68203883,17.1262136 1.61213592,17.1283981 1.60558252,17.1196602 C1.60558252,17.1174757 1.71917476,17.1415049 1.63398058,17.1218447 C1.57718447,17.1087379 1.52038835,17.0956311 1.46359223,17.0781553 C1.4657767,17.0781553 1.40898058,17.0606796 1.40898058,17.0584951 C1.42645631,17.0650485 1.44174757,17.0737864 1.4592233,17.0803398 C1.44174757,17.0716019 1.42427184,17.0650485 1.40679612,17.0563107 C1.3631068,17.034466 1.32160194,17.0104369 1.28228155,16.9864078 C1.26699029,16.9754854 1.25169903,16.9645631 1.2342233,16.9536408 C1.15121359,16.9012136 1.30412621,17.0191748 1.23203883,16.9514563 C1.19271845,16.9165049 1.15339806,16.8815534 1.1184466,16.842233 C1.10315534,16.8247573 1.08786408,16.8072816 1.07038835,16.7876214 C1.00703883,16.7177184 1.10533981,16.8487864 1.07694175,16.7963592 C1.05509709,16.7548544 1.0223301,16.715534 1.00048544,16.6762136 C0.989563107,16.6543689 0.976456311,16.6347087 0.967718447,16.6128641 C0.956796117,16.588835 0.950242718,16.5298544 0.95461165,16.5866505 C0.958980583,16.6478155 0.952427184,16.5757282 0.945873786,16.556068 C0.937135922,16.5276699 0.928398058,16.4992718 0.92184466,16.4708738 C0.915291262,16.4424757 0.908737864,16.4140777 0.902184466,16.3834951 C0.886893204,16.3179612 0.895631068,16.4031553 0.904368932,16.4118932 C0.884708738,16.3944175 0.895631068,16.2895631 0.895631068,16.261165 C0.895631068,16.2589806 0.895631068,16.2567961 0.895631068,16.2567961 C0.895631068,16.138835 0.895631068,16.0208738 0.895631068,15.9029126 C0.895631068,15.2126214 0.895631068,14.5201456 0.895631068,13.8298544 C0.895631068,12.7572816 0.895631068,11.6868932 0.895631068,10.6143204 C0.895631068,9.42597087 0.895631068,8.23543689 0.895631068,7.04708738 C0.895631068,6.00509709 0.895631068,4.96092233 0.895631068,3.91893204 C0.895631068,3.28543689 0.895631068,2.65194175 0.895631068,2.0184466 C0.895631068,1.95509709 0.895631068,1.89393204 0.895631068,1.83058252 C0.895631068,1.81747573 0.895631068,1.80218447 0.895631068,1.78907767 C0.895631068,1.7868932 0.895631068,1.78470874 0.895631068,1.78033981 C0.895631068,1.76941748 0.895631068,1.75849515 0.895631068,1.74975728 C0.895631068,1.71917476 0.9,1.68859223 0.9,1.65800971 C0.904368932,1.5684466 0.87815534,1.74757282 0.9,1.65582524 C0.91092233,1.60776699 0.92184466,1.55970874 0.934951456,1.51383495 C0.941504854,1.48980583 0.952427184,1.46796117 0.958980583,1.44393204 C0.976456311,1.38495146 0.91092233,1.54004854 0.95461165,1.45485437 C0.976456311,1.41116505 0.998300971,1.36966019 1.0223301,1.32815534 C1.03325243,1.31286408 1.04199029,1.29538835 1.05291262,1.28009709 C1.06383495,1.26480583 1.07475728,1.24951456 1.08567961,1.23203883 C1.04635922,1.28228155 1.04199029,1.28883495 1.07038835,1.2538835 C1.10315534,1.21893204 1.13373786,1.18179612 1.16868932,1.14902913 C1.18179612,1.13592233 1.19708738,1.12281553 1.21019417,1.10970874 C1.21674757,1.10315534 1.22548544,1.09660194 1.23203883,1.09004854 C1.26917476,1.05946602 1.26043689,1.06601942 1.21019417,1.10533981 C1.21019417,1.08131068 1.43737864,0.956796117 1.4592233,0.961165049 C1.44174757,0.967718447 1.42645631,0.976456311 1.40898058,0.983009709 C1.42645631,0.976456311 1.4461165,0.969902913 1.46359223,0.963349515 C1.48106796,0.956796117 1.50072816,0.952427184 1.52038835,0.945873786 C1.56407767,0.93276699 1.62305825,0.93276699 1.66456311,0.913106796 C1.64490291,0.915291262 1.62742718,0.917475728 1.60776699,0.919660194 C1.62742718,0.917475728 1.64708738,0.915291262 1.66674757,0.913106796 C1.68640777,0.91092233 1.70825243,0.91092233 1.72791262,0.91092233 C1.73883495,0.91092233 1.74975728,0.91092233 1.76067961,0.91092233 C1.77597087,0.91092233 1.79126214,0.91092233 1.8065534,0.91092233 C2.48592233,0.91092233 3.16747573,0.91092233 3.84684466,0.91092233 C5.00679612,0.91092233 6.16893204,0.91092233 7.3288835,0.91092233 C8.24635922,0.91092233 9.16383495,0.91092233 10.0791262,0.91092233 C10.2211165,0.91092233 10.3609223,0.91092233 10.5029126,0.91092233 C10.7322816,0.91092233 10.9507282,0.709951456 10.9398058,0.474029126 C10.9288835,0.238106796 10.7475728,0.0371359223 10.5029126,0.0371359223 C9.95242718,0.0371359223 9.40194175,0.0371359223 8.85145631,0.0371359223 C7.70242718,0.0371359223 6.55121359,0.0371359223 5.40218447,0.0371359223 C4.40169903,0.0371359223 3.40339806,0.0371359223 2.40291262,0.0371359223 C2.19320388,0.0371359223 1.98349515,0.0371359223 1.77597087,0.0371359223 C0.967718447,0.0393203883 0.207524272,0.611650485 0.0546116505,1.42208738 C0.0174757282,1.62305825 0.0174757282,1.8131068 0.0174757282,2.0118932 C0.0174757282,2.26092233 0.0174757282,2.50776699 0.0174757282,2.75679612 C0.0174757282,3.63932039 0.0174757282,4.52184466 0.0174757282,5.40218447 C0.0174757282,6.56650485 0.0174757282,7.73300971 0.0174757282,8.8973301 C0.0174757282,10.0703883 0.0174757282,11.2456311 0.0174757282,12.4186893 C0.0174757282,13.3274272 0.0174757282,14.236165 0.0174757282,15.1470874 C0.0174757282,15.5184466 0.0131067961,15.8876214 0.0174757282,16.2589806 C0.0262135922,17.2114078 0.806067961,17.9912621 1.75849515,18 C1.86771845,18 1.97475728,18 2.08398058,18 C2.76990291,18 3.45364078,18 4.13956311,18 C5.22087379,18 6.30218447,18 7.38349515,18 C8.58713592,18 9.7907767,18 10.9944175,18 C12.0473301,18 13.0980583,18 14.1509709,18 C14.7757282,18 15.4004854,18 16.0274272,18 C16.2502427,18 16.4643204,18 16.682767,17.9432039 C17.456068,17.742233 17.9781553,17.0213592 17.9803398,16.232767 C17.9825243,15.5730583 17.9803398,14.915534 17.9803398,14.2558252 C17.9803398,13.0871359 17.9803398,11.9206311 17.9803398,10.7519417 C17.9803398,9.81699029 17.9803398,8.88203883 17.9803398,7.94708738 C17.9803398,7.80291262 17.9803398,7.65873786 17.9803398,7.51237864 C17.9803398,7.28300971 17.7793689,7.06456311 17.5434466,7.07548544 C17.3075243,7.08640777 17.1087379,7.26771845 17.1087379,7.51237864 Z" id="Shape"></path>
                </g>
            </g>
        </g>
    </g>
</svg>