<?xml version="1.0" encoding="UTF-8"?>
<svg width="86px" height="68px" viewBox="0 0 86 68" version="1.1" xmlns="http://www.w3.org/2000/svg" xmlns:xlink="http://www.w3.org/1999/xlink">
    <!-- Generator: sketchtool 50.2 (55047) - http://www.bohemiancoding.com/sketch -->
    <title>6870EB97-886C-4B76-B7F9-96BFDFFA5EEA</title>
    <desc>Created with sketchtool.</desc>
    <defs>
        <rect id="path-1" x="20" y="244" width="1240" height="1859"></rect>
        <filter x="-0.8%" y="-0.4%" width="101.7%" height="101.1%" filterUnits="objectBoundingBox" id="filter-2">
            <feOffset dx="0" dy="3" in="SourceAlpha" result="shadowOffsetOuter1"></feOffset>
            <feGaussianBlur stdDeviation="3" in="shadowOffsetOuter1" result="shadowBlurOuter1"></feGaussianBlur>
            <feColorMatrix values="0 0 0 0 0   0 0 0 0 0   0 0 0 0 0  0 0 0 0.15 0" type="matrix" in="shadowBlurOuter1"></feColorMatrix>
        </filter>
    </defs>
    <g id="ADM-Issue" stroke="none" stroke-width="1" fill="none" fill-rule="evenodd">
        <g id="ADM_all_1280" transform="translate(-420.000000, -1828.000000)">
            <g id="Rectangle">
                <use fill="black" fill-opacity="1" filter="url(#filter-2)" xlink:href="#path-1"></use>
                <use fill="#FFFFFF" fill-rule="evenodd" xlink:href="#path-1"></use>
            </g>
            <g id="Content-details" transform="translate(39.000000, 1761.000000)">
                <g id="original-issue-dates">
                    <g id="Bloque/GR01_Sections_Accordion">
                        <rect id="Background" x="1" y="0" width="885" height="275"></rect>
                        <path d="M10.0231788,0 L875.023179,0 C880.546026,-6.47830921e-14 885.023179,4.4771525 885.023179,10 L885.023179,265 C885.023179,270.522847 880.546026,275 875.023179,275 L10.0231788,275 C4.50033131,275 0.0231788079,270.522847 0.0231788079,265 L0.0231788079,10 C0.0231788079,4.4771525 4.50033131,1.01453063e-15 10.0231788,0 Z" id="Rectangle-3" fill="#F4F0F0" opacity="0.600000024"></path>
                    </g>
                </g>
                <g id="Entrada-datos/ID08_textarea" transform="translate(429.873016, 118.000000)">
                    <rect id="Background" x="0" y="0" width="309.047619" height="134"></rect>
                    <text id="Detailed-Reasons" font-family="Roboto-Regular, Roboto" font-size="14" font-weight="normal" fill="#002A51">
                        <tspan x="0" y="13">Reason for Memo</tspan>
                    </text>
                </g>
                <g id="forms/ID01_input_text" transform="translate(43.095238, 44.000000)">
                    <g id="icons/triangle-dropdown" transform="translate(338.400000, 23.000000)">
                        <rect id="Background" x="0" y="0" width="84.6" height="68"></rect>
                        <g id="Group" transform="translate(25.380000, 18.700000)" fill="#ACB4BB" fill-rule="nonzero">
                            <path d="M33.04476,24.9747 L3.068865,24.9747 C2.88735836,24.9745447 2.7334292,24.8674606 2.7072,24.7231 L2.7072,10.3802 L33.22665,10.3802 L33.22665,24.7214 C33.417,24.8489 33.22665,24.9747 33.04476,24.9747 Z M3.068865,5.5998 L5.416515,5.5998 L5.416515,6.6062 C5.43748653,6.89502507 5.60271684,7.16479501 5.87470932,7.35428944 C6.1467018,7.54378387 6.50239157,7.63693373 6.86106,7.6126 C7.764165,7.6126 8.305605,7.2352 8.305605,6.6062 L8.305605,5.5998 L27.80802,5.5998 L27.80802,6.6062 C27.8289915,6.89502507 27.9942218,7.16479501 28.2662143,7.35428944 C28.5382068,7.54378387 28.8938966,7.63693373 29.252565,7.6126 C30.15567,7.6126 30.69711,7.2352 30.69711,6.6062 L30.69711,5.5998 L33.04476,5.5998 C33.2262666,5.59995527 33.3801958,5.70703939 33.406425,5.8514 L33.406425,8.5 L2.709315,8.5 L2.709315,5.8514 C2.73542454,5.70767472 2.88816191,5.60079467 3.068865,5.5998 Z M33.04476,3.587 L30.69711,3.587 L30.69711,2.7064 C30.6761385,2.41757493 30.5109082,2.14780499 30.2389157,1.95831056 C29.9669232,1.76881613 29.6112334,1.67566627 29.252565,1.7 C28.34946,1.7 27.80802,2.0774 27.80802,2.7064 L27.80802,3.7128 L8.305605,3.7128 L8.305605,2.7064 C8.305605,2.0774 7.764165,1.7 6.86106,1.7 C6.51368562,1.65614776 6.16103227,1.74740059 5.91072739,1.94590872 C5.66042251,2.14441686 5.5421701,2.42662311 5.59206,2.7064 L5.59206,3.7128 L3.05406,3.7128 C2.29015504,3.64878428 1.52749378,3.84271428 0.948388921,4.24823142 C0.369284058,4.65374855 0.0257833616,5.23440646 0,5.8514 L0,24.7214 C0.0530692422,25.3324296 0.406501743,25.9013604 0.982277586,26.3026013 C1.55805343,26.7038423 2.30882675,26.9043994 3.068865,26.86 L33.04476,26.86 C33.8054582,26.9067242 34.5578136,26.7069922 35.1342492,26.3052915 C35.7106847,25.9035909 36.0633253,25.3332843 36.113625,24.7214 L36.113625,5.8514 C36.0204809,4.55386985 34.661099,3.55083305 33.04476,3.587 Z" id="Path_8238"></path>
                            <path d="M13.906125,13.2736 C13.906125,14.5316 11.19681,14.5316 11.19681,13.2736 C11.19681,12.0156 13.906125,12.0156 13.906125,13.2736" id="Path_8239"></path>
                            <path d="M19.502415,13.2736 C19.502415,14.5316 16.7931,14.5316 16.7931,13.2736 C16.7931,12.0156 19.502415,12.0156 19.502415,13.2736" id="Path_8240"></path>
                            <path d="M25.10082,13.2736 C25.10082,14.5316 22.391505,14.5316 22.391505,13.2736 C22.391505,12.0156 25.10082,12.0156 25.10082,13.2736" id="Path_8241"></path>
                            <path d="M30.517335,13.2736 C30.517335,14.5316 27.80802,14.5316 27.80802,13.2736 C27.80802,12.0156 30.517335,12.0156 30.517335,13.2736" id="Path_8242"></path>
                            <path d="M8.30772,17.1734 C8.30772,18.4314 5.598405,18.4314 5.598405,17.1734 C5.598405,15.9154 8.30772,15.9154 8.30772,17.1734" id="Path_8243"></path>
                            <path d="M13.906125,17.1734 C13.906125,18.4314 11.19681,18.4314 11.19681,17.1734 C11.19681,15.9154 13.906125,15.9154 13.906125,17.1734" id="Path_8244"></path>
                            <path d="M19.502415,17.1734 C19.502415,18.4314 16.7931,18.4314 16.7931,17.1734 C16.7931,15.9154 19.502415,15.9154 19.502415,17.1734" id="Path_8245"></path>
                            <path d="M25.10082,17.1734 C25.10082,18.4314 22.391505,18.4314 22.391505,17.1734 C22.391505,15.9154 25.10082,15.9154 25.10082,17.1734" id="Path_8246"></path>
                            <path d="M30.517335,17.1734 C30.517335,18.4314 27.80802,18.4314 27.80802,17.1734 C27.80802,15.9154 30.517335,15.9154 30.517335,17.1734" id="Path_8247"></path>
                            <path d="M8.30772,21.0749 C8.30772,22.3329 5.598405,22.3329 5.598405,21.0749 C5.598405,19.8169 8.30772,19.8169 8.30772,21.0749" id="Path_8248"></path>
                            <path d="M13.906125,21.0749 C13.906125,22.3329 11.19681,22.3329 11.19681,21.0749 C11.19681,19.8169 13.906125,19.8169 13.906125,21.0749" id="Path_8249"></path>
                            <path d="M19.502415,21.0749 C19.502415,22.3329 16.7931,22.3329 16.7931,21.0749 C16.7931,19.8169 19.502415,19.8169 19.502415,21.0749" id="Path_8250"></path>
                        </g>
                    </g>
                </g>
                <g id="forms/ID01_input_text" transform="translate(43.095238, 117.000000)" fill="#152C5A" font-family="Roboto-Regular, Roboto" font-size="14" font-weight="normal">
                    <text id="Label">
                        <tspan x="0" y="13">Passenger</tspan>
                    </text>
                </g>
                <g id="forms/ID01_input_text" transform="translate(429.873016, 44.000000)">
                    <rect id="Background" x="0" y="0" width="234.126984" height="63"></rect>
                    <rect id="Rectangle" stroke="#BDC3C9" fill="#FFFFFF" x="0.5" y="23.5" width="233.126984" height="39" rx="4"></rect>
                    <text id="text-field" opacity="0.5" font-family="Roboto-Regular, Roboto" font-size="16" font-weight="normal" fill="#152C5A">
                        <tspan x="11" y="49">Choose an option</tspan>
                    </text>
                </g>
            </g>
        </g>
    </g>
</svg>