<?xml version="1.0" encoding="UTF-8"?>
<svg width="12px" height="14px" viewBox="0 0 12 14" version="1.1" xmlns="http://www.w3.org/2000/svg" xmlns:xlink="http://www.w3.org/1999/xlink">
    <!-- Generator: sketchtool 50.2 (55047) - http://www.bohemiancoding.com/sketch -->
    <title>398F5926-93A7-4C26-A1C3-5BBDA77D7F1E</title>
    <desc>Created with sketchtool.</desc>
    <defs>
        <rect id="path-1" x="0" y="39" width="295" height="500" rx="4"></rect>
        <filter x="-3.6%" y="-1.5%" width="107.1%" height="104.2%" filterUnits="objectBoundingBox" id="filter-2">
            <feOffset dx="0" dy="3" in="SourceAlpha" result="shadowOffsetOuter1"></feOffset>
            <feGaussianBlur stdDeviation="3" in="shadowOffsetOuter1" result="shadowBlurOuter1"></feGaussianBlur>
            <feColorMatrix values="0 0 0 0 0   0 0 0 0 0   0 0 0 0 0  0 0 0 0.15 0" type="matrix" in="shadowBlurOuter1"></feColorMatrix>
        </filter>
    </defs>
    <g id="ADM-Issue" stroke="none" stroke-width="1" fill="none" fill-rule="evenodd">
        <g id="Tabs-selection" transform="translate(-369.000000, -964.000000)">
            <g id="Selection-documents" transform="translate(100.000000, 732.000000)">
                <g id="Documents">
                    <g id="fondo-pestañas">
                        <use fill="black" fill-opacity="1" filter="url(#filter-2)" xlink:href="#path-1"></use>
                        <use fill="#FFFFFF" fill-rule="evenodd" xlink:href="#path-1"></use>
                    </g>
                </g>
                <g id="tables/LIST03_row_files_documents" transform="translate(0.000000, 219.000000)">
                    <g id="background-row-odd" fill="#F2F2F2" fill-rule="evenodd">
                        <rect id="Rectangle-3" x="0" y="0" width="295" height="40"></rect>
                    </g>
                    <text id="1-label" font-family="Roboto-Regular, Roboto" font-size="14" font-weight="normal" fill="#00A3E0">
                        <tspan x="24" y="25">Document 3</tspan>
                    </text>
                    <g id="icons/trash" transform="translate(255.000000, 0.000000)" fill="#667380" fill-rule="evenodd" stroke-width="1">
                        <g id="trash" transform="translate(13.000000, 12.000000)">
                            <path d="M11.874,2.663 L9.574,2.663 L9.574,2.151 C9.57507324,1.8448873 9.45373948,1.551046 9.23700224,1.33487221 C9.02026501,1.11869842 8.72610887,0.998129939 8.42,1 L5.35,1 C5.04458283,0.999199312 4.75145855,1.12024 4.53558913,1.33629713 C4.31971971,1.55235427 4.19893385,1.84558364 4.2,2.151 L4.2,2.663 L1.9,2.663 C1.39748252,2.66958774 0.994997341,3.08146424 1,3.584 L1,4.608 C1.00380938,5.1034698 1.4045302,5.50419062 1.9,5.508 L1.9,12.8 C1.90165248,13.9977728 2.87222724,14.9683475 4.07,14.97 L9.7,14.97 C10.8993346,14.9705531 11.8723444,13.9993335 11.874,12.8 L11.874,5.478 C12.3694698,5.47419062 12.7701906,5.0734698 12.774,4.578 L12.774,3.559 C12.7680239,3.06509297 12.3679288,2.66677598 11.874,2.663 Z M4.966,2.151 C4.97178484,1.94153149 5.14051712,1.77323862 5.35,1.768 L8.42,1.768 C8.62985908,1.77326209 8.79873791,1.94214092 8.804,2.152 L8.804,2.664 L4.966,2.664 L4.966,2.151 Z M11.106,12.8 C11.0951765,13.5710035 10.4710428,14.1924738 9.7,14.2 L4.07,14.2 C3.29856706,14.1930134 2.67383406,13.5713885 2.663,12.8 L2.663,5.478 L11.106,5.478 L11.106,12.8 Z M12,4.608 C12.0020633,4.64253901 11.9892415,4.67630894 11.9647752,4.70077524 C11.9403089,4.72524154 11.906539,4.73806326 11.872,4.736 L1.9,4.736 C1.86546099,4.73806326 1.83169106,4.72524154 1.80722476,4.70077524 C1.78275846,4.67630894 1.76993674,4.64253901 1.772,4.608 L1.772,3.584 C1.76993674,3.54946099 1.78275846,3.51569106 1.80722476,3.49122476 C1.83169106,3.46675846 1.86546099,3.45393674 1.9,3.456 L11.879,3.456 C11.9123417,3.45594416 11.9442288,3.46964868 11.9671331,3.49387805 C11.9900375,3.51810741 12.0019289,3.55071413 12,3.584 L12,4.608 Z" id="Path_20586" fill-rule="nonzero"></path>
                            <path d="M5.094,12.386 C5.30385908,12.3807379 5.47273791,12.2118591 5.478,12.002 L5.478,7.652 C5.478,7.43992266 5.30607734,7.268 5.094,7.268 C4.88192266,7.268 4.71,7.43992266 4.71,7.652 L4.71,12.002 C4.70807998,12.1044197 4.74792015,12.2032111 4.82035452,12.2756455 C4.89278888,12.3480799 4.99158033,12.38792 5.094,12.386 Z" id="Path_20587" fill-rule="nonzero"></path>
                            <path d="M6.885,12.386 C7.09485908,12.3807379 7.26373791,12.2118591 7.269,12.002 L7.269,7.652 C7.269,7.43992266 7.09707734,7.268 6.885,7.268 C6.67292266,7.268 6.501,7.43992266 6.501,7.652 L6.501,12.002 C6.49907998,12.1044197 6.53892015,12.2032111 6.61135452,12.2756455 C6.68378888,12.3480799 6.78258033,12.38792 6.885,12.386 Z" id="Path_20588" fill-rule="nonzero"></path>
                            <path d="M8.676,12.386 C8.88585908,12.3807379 9.05473791,12.2118591 9.06,12.002 L9.06,7.652 C9.06,7.43992266 8.88807734,7.268 8.676,7.268 C8.46392266,7.268 8.292,7.43992266 8.292,7.652 L8.292,12.002 C8.29007998,12.1044197 8.32992015,12.2032111 8.40235452,12.2756455 C8.47478888,12.3480799 8.57358033,12.38792 8.676,12.386 Z" id="Path_20589" fill-rule="nonzero"></path>
                        </g>
                    </g>
                </g>
            </g>
        </g>
    </g>
</svg>