<?xml version="1.0" encoding="UTF-8"?>
<svg width="20px" height="20px" viewBox="0 0 20 20" version="1.1" xmlns="http://www.w3.org/2000/svg" xmlns:xlink="http://www.w3.org/1999/xlink">
    <!-- Generator: Sketch 50.2 (55047) - http://www.bohemiancoding.com/sketch -->
    <title>ico_expand</title>
    <desc>Created with Sketch.</desc>
    <defs></defs>
    <g id="Symbols" stroke="none" stroke-width="1" fill="none" fill-rule="evenodd">
        <g id="icons/expand" fill="#1989CF" fill-rule="nonzero">
            <g id="Group">
                <path d="M9.99890076,0.0796 C4.48455587,0.0796 0,4.51536264 0,9.96970989 C0,15.4240615 4.48455587,19.8598198 9.99890076,19.8598198 C15.5132456,19.8598198 19.9978015,15.4240615 19.9978015,9.96970989 C19.9978015,4.51536264 15.5132456,0.0796 9.99890076,0.0796 Z M9.99890076,1.39828132 C14.792738,1.39828132 18.6646148,5.22803077 18.6646148,9.96970989 C18.6646148,14.7113802 14.792738,18.5411385 9.99890076,18.5411385 C5.20506355,18.5411385 1.33318677,14.7113802 1.33318677,9.96970989 C1.33318677,5.22803077 5.20506355,1.39828132 9.99890076,1.39828132 Z M14.8733649,7.09196264 C14.6877371,7.1003533 14.5140735,7.18499562 14.3942509,7.32547912 L9.99890076,12.0713582 L5.60355063,7.32547912 C5.46847337,7.17549653 5.27164836,7.0945891 5.06888719,7.1056989 C4.81141825,7.12037141 4.5856,7.28061332 4.48905207,7.51715318 C4.39250414,7.75369305 4.44254717,8.02409575 4.61754792,8.21146813 L9.5058994,13.4861934 C9.63223518,13.6234741 9.81122122,13.7017229 9.99890076,13.7017229 C10.1865803,13.7017229 10.3655663,13.6234741 10.4919021,13.4861934 L15.3802536,8.21146813 C15.5714898,8.01781952 15.6236456,7.72823676 15.5117832,7.48117961 C15.3999209,7.23412245 15.1467676,7.07978547 14.8733649,7.09196264 Z" id="Shape"></path>
            </g>
        </g>
    </g>
</svg>